<svg id="Layer_1" data-name="Layer 1" xmlns="http://www.w3.org/2000/svg" viewBox="0 0 24 24"><defs><style>.cls-1{fill:none;}.cls-2{fill:#3f3838;}</style></defs><path class="cls-1" d="M0,0H24V24H0Z" transform="translate(0 0)"/><path class="cls-2" d="M4,16a3,3,0,0,0,1,2.22V19.5a1.5,1.5,0,0,0,3,0V19h8v.5a1.5,1.5,0,0,0,3,0V18.22A3,3,0,0,0,20,16V6c0-3.5-3.58-4-8-4S4,2.5,4,6Zm3.5,1A1.5,1.5,0,1,1,9,15.5,1.5,1.5,0,0,1,7.5,17Zm9,0A1.5,1.5,0,1,1,18,15.5,1.5,1.5,0,0,1,16.5,17ZM18,11H6V6H18Z" transform="translate(0 0)"/></svg>