<svg id="Layer_1" data-name="Layer 1" xmlns="http://www.w3.org/2000/svg" viewBox="0 0 24 24"><defs><style>.cls-1{fill:none;}.cls-2{fill:#3f3838;}</style></defs><path class="cls-1" d="M0,0H24V24H0Z" transform="translate(0 0)"/><path class="cls-2" d="M6.05,4.14l-.39-.39a1,1,0,0,0-1.4,0h0a1,1,0,0,0,0,1.4l.39.39a1,1,0,0,0,1.4,0h0A1,1,0,0,0,6.05,4.14ZM3,10.5H2a1,1,0,0,0-1,1H1a1,1,0,0,0,1,1H3a1,1,0,0,0,1-1H4A1,1,0,0,0,3,10.5ZM12,.55h0a1,1,0,0,0-1,1v1a1,1,0,0,0,1,1h0a1,1,0,0,0,1-1v-1A1,1,0,0,0,12,.55Zm7.74,3.21a1,1,0,0,0-1.41,0L18,4.14a1,1,0,0,0,0,1.4h0a1,1,0,0,0,1.4,0l.39-.39A1,1,0,0,0,19.75,3.76Zm-1.81,15.1.39.39a1,1,0,0,0,1.41-1.41l-.39-.39a1,1,0,0,0-1.41,1.41ZM20,11.49h0a1,1,0,0,0,1,1h1a1,1,0,0,0,1-1h0a1,1,0,0,0-1-1H21A1,1,0,0,0,20,11.49Zm-8-6a6,6,0,1,0,6,6A6,6,0,0,0,12,5.5Zm0,17h0a1,1,0,0,0,1-1v-1a1,1,0,0,0-1-1h0a1,1,0,0,0-1,1v1A1,1,0,0,0,12,22.45ZM4.25,19.24a1,1,0,0,0,1.41,0l.39-.39a1,1,0,0,0,0-1.4H6a1,1,0,0,0-1.41,0l-.39.39A1,1,0,0,0,4.25,19.24Z" transform="translate(0 0)"/></svg>