<svg xmlns="http://www.w3.org/2000/svg" viewBox="0 0 500 500"><g id="freepik--Floor--inject-136"><path id="freepik--SUELO--inject-136" d="M89.6,408c88.59,38.16,232.21,38.16,320.8,0s88.58-100,0-138.18-232.21-38.15-320.8,0S1,369.82,89.6,408Z" style="fill:#fafafa"></path></g><g id="freepik--Shadows--inject-136"><polygon points="153.83 312.44 88.94 349.91 84.07 347.04 148.96 309.63 153.83 312.44" style="fill:#ebebeb"></polygon><polygon points="126.74 329.06 152.7 314.07 153.32 314.43 127.37 329.42 126.74 329.06" style="fill:#ebebeb"></polygon><path d="M467,352.08c4.51-2.61,4.51-6.83,0-9.44L291.54,241.34c-4.51-2.6-11.84-2.6-16.36,0l-78.12,45.08,7.67,4.43L245,267.66,421.47,369.53l-36.94,21.3,8.18,4.13Z" style="fill:#ebebeb"></path><path d="M203.45,330.39l125.18,72.27a5.13,5.13,0,0,0,4.61,0l38.65-22.32c1.28-.73,1.28-1.92,0-2.66L246.72,305.41a5.15,5.15,0,0,0-4.62,0l-38.65,22.32C202.18,328.46,202.18,329.65,203.45,330.39Z" style="fill:#ebebeb"></path></g><g id="freepik--Plants--inject-136"><g id="freepik--plants--inject-136"><path d="M87.32,329.83c-1.32-7.55-2.21-21.73-10.86-33.69-6.27-8.66-16.15-16.42-23.7-14.17-7,2.09-5.78,13.24,2.39,19.61s18.72,15.32,23.52,31.7l7.08,11.54Z" style="fill:#F07C1C"></path><g style="opacity:0.1"><path d="M87.32,329.83c-1.32-7.55-2.21-21.73-10.86-33.69-6.27-8.66-16.15-16.42-23.7-14.17-7,2.09-5.78,13.24,2.39,19.61s18.72,15.32,23.52,31.7l7.08,11.54Z"></path></g><path d="M85.66,335.59a.55.55,0,0,1-.53-.47C82.29,313.49,72.22,296.87,56,287.05a.53.53,0,0,1-.18-.73.55.55,0,0,1,.74-.18C73.06,296.13,83.3,313,86.19,335a.53.53,0,0,1-.46.6Z" style="fill:#fff"></path><path d="M85,346.07a27.06,27.06,0,0,1-12,7.13C65.09,355.52,61,352.14,61,352.14s2.18-7.95,6.47-10.66A45.33,45.33,0,0,0,54.31,349s-4.9.72-7.83-6.52c0,0,2.32-4.89,11.75-8.59,0,0-6.13-.72-14.39,2.57-.61.34-4.61-9-6-13.34s.39-4.55,3.76-5.94,15.14-3.51,17.57-1.88,4.39,8,4.39,8,1.61-4,.67-7.22a12.52,12.52,0,0,1,7.44-.79c4.09.85,4.92,3.51,5.84,6.23a20.46,20.46,0,0,1,1,8.71s2.09-5.13.69-9.68a16.32,16.32,0,0,1,6.76,5.13C88.55,329.36,89.34,339.6,85,346.07Z" style="fill:#F07C1C"></path><path d="M85,346.61a.56.56,0,0,1-.45-.24c-8.23-12.62-34.35-25.11-43.19-25.66a.54.54,0,0,1-.5-.57.53.53,0,0,1,.57-.5c9,.57,35.63,13.3,44,26.14a.54.54,0,0,1-.44.83Z" style="fill:#fff"></path></g></g><g id="freepik--bus-stop--inject-136"><g id="freepik--bus-stop--inject-136"><g id="freepik--toldo--inject-136"><polygon points="208.59 98.16 208.59 288.62 204.73 290.85 204.73 100.39 208.59 98.16" style="fill:#37474f"></polygon><polygon points="204.73 100.39 204.73 290.85 197.06 286.42 197.06 95.97 204.73 100.39" style="fill:#263238"></polygon><polygon points="392.71 394.97 388.85 397.18 388.85 206.73 392.7 204.51 392.71 394.97" style="fill:#37474f"></polygon><polygon points="388.85 206.73 388.85 397.18 381.18 392.76 381.18 202.3 388.85 206.73" style="fill:#263238"></polygon><path d="M390.84,196.72l-.11-.06L206.81,90.48l0,0c-4.42-2.66-16.57.6-30.9,8.88L155,111.44c-18.06,10.44-32.7,24.84-32.7,32.18h0v4.43h0l184.11,106.3h0l86.31-49.84v-4.43A3.61,3.61,0,0,0,390.84,196.72Z" style="fill:#F07C1C"></path><path d="M390.73,196.66c-4.57-2.45-16.6.86-30.74,9l-20.88,12.07c-18.07,10.42-32.72,24.83-32.72,32.17L126.11,145.83l-3.83-2.21c0-7.34,14.64-21.74,32.7-32.18l20.9-12.06c14.33-8.28,26.48-11.54,30.9-8.88l0,0Z" style="fill:#fff;opacity:0.4"></path><polygon points="306.39 249.92 306.39 254.34 122.28 148.05 122.28 143.62 306.39 249.92" style="opacity:0.1"></polygon></g><g id="freepik--Chair--inject-136"><path d="M272.37,335.05a2.62,2.62,0,0,0,1.34-.36L302.8,317.9A10.35,10.35,0,0,0,308,309V275.38a2.7,2.7,0,0,0-5.4,0V309a4.91,4.91,0,0,1-2.46,4.25L271,330a2.7,2.7,0,0,0,1.36,5Z" style="fill:#263238"></path><path d="M331.75,368.58a2.76,2.76,0,0,0,1.35-.36l29.08-16.8a10.34,10.34,0,0,0,5.16-8.93V308.9a2.7,2.7,0,0,0-5.4,0v33.59a4.91,4.91,0,0,1-2.46,4.25l-29.08,16.8a2.7,2.7,0,0,0,1.35,5Z" style="fill:#263238"></path><path d="M215,301.28a2.67,2.67,0,0,0,1.35-.37l29.09-16.79a10.34,10.34,0,0,0,5.15-8.93V241.6a2.7,2.7,0,0,0-5.4,0v33.59a4.92,4.92,0,0,1-2.45,4.25l-29.09,16.8a2.7,2.7,0,0,0,1.35,5Z" style="fill:#263238"></path><path d="M326.71,365.23v31.09a1.53,1.53,0,0,0,.9,1.25,4.81,4.81,0,0,0,4.34,0,1.53,1.53,0,0,0,.9-1.25V365.23Z" style="fill:#263238"></path><path d="M352.37,350.62V381.7a1.53,1.53,0,0,0,.9,1.26,4.81,4.81,0,0,0,4.34,0,1.54,1.54,0,0,0,.89-1.26V350.62Z" style="fill:#263238"></path><path d="M210.09,297.9V329a1.51,1.51,0,0,0,.9,1.25,4.73,4.73,0,0,0,4.33,0,1.51,1.51,0,0,0,.9-1.25V297.9Z" style="fill:#263238"></path><path d="M235.75,283.28v31.09a1.52,1.52,0,0,0,.89,1.25,4.81,4.81,0,0,0,4.34,0,1.53,1.53,0,0,0,.9-1.25V283.28Z" style="fill:#263238"></path><path d="M373.35,316.52l.54-.31a3.43,3.43,0,0,0,1.56-2.7v-4.84a3.46,3.46,0,0,0-1.56-2.7L245.68,232a3.43,3.43,0,0,0-3.12,0l-.54.31a3.44,3.44,0,0,0-1.56,2.7v4.84a3.46,3.46,0,0,0,1.56,2.7l128.22,74A3.41,3.41,0,0,0,373.35,316.52Z" style="fill:#455a64"></path><path d="M368.14,311.09l6.85-3.95a3.05,3.05,0,0,1,.46,1.53v4.84a3.43,3.43,0,0,1-1.56,2.7l-.54.31a3.41,3.41,0,0,1-3.11,0l-2.1-1.21Z" style="fill:#263238"></path><path d="M370.24,308.08,242,234.06c-.86-.5-1.56-.1-1.56.9v4.84a3.46,3.46,0,0,0,1.56,2.7l128.22,74c.86.5,1.55.1,1.55-.9v-4.84A3.45,3.45,0,0,0,370.24,308.08Z" style="fill:#37474f"></path><path d="M373.35,331.33l.54-.31a3.46,3.46,0,0,0,1.56-2.7v-4.84a3.43,3.43,0,0,0-1.56-2.7l-128.21-74a3.49,3.49,0,0,0-3.12,0l-.54.31a3.46,3.46,0,0,0-1.56,2.7v4.84a3.43,3.43,0,0,0,1.56,2.7l128.22,74A3.47,3.47,0,0,0,373.35,331.33Z" style="fill:#455a64"></path><path d="M368.14,325.9l6.85-4a3.12,3.12,0,0,1,.46,1.54v4.84a3.46,3.46,0,0,1-1.56,2.7l-.54.31a3.47,3.47,0,0,1-3.11,0l-2.1-1.21Z" style="fill:#263238"></path><path d="M370.24,322.89,242,248.86c-.86-.49-1.56-.09-1.56.9v4.84a3.43,3.43,0,0,0,1.56,2.7l128.22,74c.86.49,1.55.09,1.55-.9v-4.84A3.42,3.42,0,0,0,370.24,322.89Z" style="fill:#37474f"></path><path d="M373.35,346.13l.54-.31a3.46,3.46,0,0,0,1.56-2.7v-4.84a3.44,3.44,0,0,0-1.56-2.7l-128.21-74a3.43,3.43,0,0,0-3.12,0l-.54.31a3.43,3.43,0,0,0-1.56,2.7v4.84a3.46,3.46,0,0,0,1.56,2.7l128.22,74A3.41,3.41,0,0,0,373.35,346.13Z" style="fill:#455a64"></path><path d="M368.14,340.7l6.85-4a3.12,3.12,0,0,1,.46,1.54v4.84a3.46,3.46,0,0,1-1.56,2.7l-.54.31a3.41,3.41,0,0,1-3.11,0l-2.1-1.21Z" style="fill:#263238"></path><path d="M370.24,337.69,242,263.67c-.86-.5-1.56-.1-1.56.9v4.84a3.46,3.46,0,0,0,1.56,2.7l128.22,74c.86.5,1.55.09,1.55-.9v-4.84A3.43,3.43,0,0,0,370.24,337.69Z" style="fill:#37474f"></path><path d="M368.14,355.09v.62a3.43,3.43,0,0,1-1.56,2.7l-4.19,2.42a3.43,3.43,0,0,1-3.12,0l-128.21-74a3.44,3.44,0,0,1-1.56-2.7v-.62a3.46,3.46,0,0,1,1.56-2.7l4.19-2.42a3.43,3.43,0,0,1,3.12,0l128.21,74A3.46,3.46,0,0,1,368.14,355.09Z" style="fill:#37474f"></path><path d="M360.83,353.29v7.92a3.19,3.19,0,0,0,1.56-.38l4.19-2.42a3.43,3.43,0,0,0,1.56-2.7v-.62a3.46,3.46,0,0,0-1.56-2.7l-2.1-1.21Z" style="fill:#263238"></path><path d="M359.27,356.61l-128.21-74a1,1,0,0,1,0-1.8l4.19-2.42a3.43,3.43,0,0,1,3.12,0l128.21,74a1,1,0,0,1,0,1.8l-4.19,2.42A3.43,3.43,0,0,1,359.27,356.61Z" style="fill:#455a64"></path><path d="M355.35,362.48v.62a3.46,3.46,0,0,1-1.56,2.7l-4.19,2.42a3.43,3.43,0,0,1-3.12,0l-128.22-74a3.45,3.45,0,0,1-1.55-2.7v-.62a3.42,3.42,0,0,1,1.55-2.7l4.2-2.42a3.41,3.41,0,0,1,3.11,0l128.22,74A3.44,3.44,0,0,1,355.35,362.48Z" style="fill:#37474f"></path><path d="M348,360.68v7.91a3.18,3.18,0,0,0,1.56-.37l4.19-2.42a3.46,3.46,0,0,0,1.56-2.7v-.62a3.44,3.44,0,0,0-1.56-2.7l-2.1-1.21Z" style="fill:#263238"></path><path d="M346.48,364,218.26,290a1,1,0,0,1,0-1.8l4.2-2.42a3.41,3.41,0,0,1,3.11,0l128.22,74a1,1,0,0,1,0,1.8L349.6,364A3.43,3.43,0,0,1,346.48,364Z" style="fill:#455a64"></path><path d="M342.55,369.86v.63a3.42,3.42,0,0,1-1.55,2.69l-4.2,2.43a3.47,3.47,0,0,1-3.11,0l-128.22-74a3.44,3.44,0,0,1-1.56-2.7v-.62a3.46,3.46,0,0,1,1.56-2.7l4.2-2.42a3.41,3.41,0,0,1,3.11,0l128.22,74A3.45,3.45,0,0,1,342.55,369.86Z" style="fill:#37474f"></path><path d="M335.24,368.06V376a3.27,3.27,0,0,0,1.56-.37l4.2-2.43a3.42,3.42,0,0,0,1.55-2.69v-.63a3.45,3.45,0,0,0-1.55-2.7L338.9,366Z" style="fill:#263238"></path><path d="M333.69,371.39l-128.22-74a1,1,0,0,1,0-1.8l4.2-2.42a3.41,3.41,0,0,1,3.11,0l128.22,74a1,1,0,0,1,0,1.8l-4.2,2.43A3.47,3.47,0,0,1,333.69,371.39Z" style="fill:#455a64"></path><path d="M364.64,307.74a2.23,2.23,0,0,1,1,1.74c0,.64-.45.9-1,.58a2.23,2.23,0,0,1-1-1.74C363.64,307.68,364.09,307.42,364.64,307.74Z" style="fill:#263238"></path><path d="M364.64,322.52a2.21,2.21,0,0,1,1,1.73c0,.64-.45.9-1,.58a2.23,2.23,0,0,1-1-1.74C363.64,322.45,364.09,322.2,364.64,322.52Z" style="fill:#263238"></path><path d="M364.64,337.29a2.23,2.23,0,0,1,1,1.74c0,.63-.45.89-1,.57a2.21,2.21,0,0,1-1-1.73C363.64,337.23,364.09,337,364.64,337.29Z" style="fill:#263238"></path><path d="M247.91,240.48a2.19,2.19,0,0,1,1,1.73c0,.64-.45.9-1,.58a2.21,2.21,0,0,1-1-1.73C246.91,240.42,247.36,240.16,247.91,240.48Z" style="fill:#263238"></path><path d="M247.91,255.25a2.21,2.21,0,0,1,1,1.74c0,.64-.45.9-1,.58a2.23,2.23,0,0,1-1-1.74C246.91,255.19,247.36,254.93,247.91,255.25Z" style="fill:#263238"></path><path d="M247.91,270a2.21,2.21,0,0,1,1,1.74c0,.64-.45.9-1,.58a2.23,2.23,0,0,1-1-1.74C246.91,270,247.36,269.7,247.91,270Z" style="fill:#263238"></path><path d="M356.32,349.47c.48.29.49.74,0,1a2,2,0,0,1-1.76,0c-.49-.28-.49-.73,0-1A2,2,0,0,1,356.32,349.47Z" style="fill:#263238"></path><path d="M343.49,356.92a.54.54,0,0,1,0,1,2,2,0,0,1-1.76,0,.54.54,0,0,1,0-1A2,2,0,0,1,343.49,356.92Z" style="fill:#263238"></path><path d="M330.66,364.37c.49.28.49.73,0,1a1.89,1.89,0,0,1-1.76,0c-.49-.28-.49-.73,0-1A2,2,0,0,1,330.66,364.37Z" style="fill:#263238"></path><path d="M239.69,282.18a.54.54,0,0,1,0,1,2,2,0,0,1-1.76,0,.54.54,0,0,1,0-1A2,2,0,0,1,239.69,282.18Z" style="fill:#263238"></path><path d="M226.86,289.62c.49.29.49.74,0,1a2,2,0,0,1-1.77,0c-.49-.28-.49-.73,0-1A2,2,0,0,1,226.86,289.62Z" style="fill:#263238"></path><path d="M214,297.07a.54.54,0,0,1,0,1,2,2,0,0,1-1.77,0,.54.54,0,0,1,0-1A2,2,0,0,1,214,297.07Z" style="fill:#263238"></path><path d="M305.26,274.26a2.21,2.21,0,0,1,1,1.73c0,.64-.45.9-1,.58a2.21,2.21,0,0,1-1-1.74C304.25,274.19,304.7,273.94,305.26,274.26Z" style="fill:#263238"></path><path d="M305.26,289a2.23,2.23,0,0,1,1,1.73c0,.64-.45.9-1,.58a2.19,2.19,0,0,1-1-1.73C304.25,289,304.7,288.71,305.26,289Z" style="fill:#263238"></path><path d="M305.26,303.8a2.23,2.23,0,0,1,1,1.74c0,.64-.45.9-1,.58a2.21,2.21,0,0,1-1-1.74C304.25,303.74,304.7,303.48,305.26,303.8Z" style="fill:#263238"></path><path d="M297,316a.53.53,0,0,1,0,1,1.89,1.89,0,0,1-1.76,0c-.49-.28-.49-.73,0-1A2,2,0,0,1,297,316Z" style="fill:#263238"></path><path d="M284.21,323.4a.54.54,0,0,1,0,1,2,2,0,0,1-1.76,0,.54.54,0,0,1,0-1A2,2,0,0,1,284.21,323.4Z" style="fill:#263238"></path><path d="M271.38,330.85a.54.54,0,0,1,0,1,2,2,0,0,1-1.76,0,.54.54,0,0,1,0-1A2,2,0,0,1,271.38,330.85Z" style="fill:#263238"></path></g></g></g><g id="freepik--Sign--inject-136"><g id="freepik--bus-signal--inject-136"><polygon points="88.75 158.66 88.75 348.99 84.89 346.76 84.89 156.39 88.75 158.66" style="fill:#263238"></polygon><polygon points="94.92 155.06 94.92 345.43 88.75 348.99 88.75 158.66 94.92 155.06" style="fill:#37474f"></polygon><polygon points="94.92 155.06 88.75 158.66 84.89 156.39 91.06 152.83 94.92 155.06" style="fill:#455a64"></polygon><path d="M73.66,177.86,108,158c1.27-.73,2.3-.14,2.3,1.33V209a5.09,5.09,0,0,1-2.3,4L73.66,232.81c-1.27.74-2.3.14-2.3-1.33V181.85A5.1,5.1,0,0,1,73.66,177.86Z" style="fill:#F07C1C"></path><path d="M105.13,181.45l-1.56.9a.49.49,0,0,0-.22.38v3.62h0V188l-.68.38V176.75c0-2.05-1.44-2.88-3.21-1.86l-17.27,10A7.13,7.13,0,0,0,79,190.43V202l-.68.4v-1.61h0v-3.62c0-.14-.09-.2-.21-.13l-1.56.9a.49.49,0,0,0-.22.38v3.32c0,.51.36.72.8.46l.42-.24v1c0,.49.34.68.76.44l.69-.4v8.18l-.09,0a1.94,1.94,0,0,0-.87,1.51v.29c0,1.33.93,1.87,2.08,1.2l.44-.25V216c0,.36.25.5.56.32l2.7-1.56a1.24,1.24,0,0,0,.57-1v-2.12l12.92-7.46v2.12c0,.36.25.5.56.32l2.7-1.56a1.24,1.24,0,0,0,.57-1V202l.43-.25a4.6,4.6,0,0,0,2.08-3.61v-.29c0-.55-.38-.78-.86-.5l-.1.05v-8.18l.69-.4a1.67,1.67,0,0,0,.76-1.31v-1l.42-.24a1.81,1.81,0,0,0,.8-1.4v-3.32C105.34,181.44,105.25,181.38,105.13,181.45Zm-3.38,10.7a3,3,0,0,1-1.34,2.32c-.74.43-1.34.08-1.34-.77a3,3,0,0,1,1.34-2.33C101.15,190.94,101.75,191.29,101.75,192.15Zm-1.84-15.68c.46-.27.84-.05.84.48a1.87,1.87,0,0,1-.84,1.45c-.46.27-.84,0-.84-.48A1.84,1.84,0,0,1,99.91,176.47Zm.84,5.88V188a.88.88,0,0,1-.39.68L91.23,194V184.9l7-4C99.61,180.06,100.75,180.72,100.75,182.35ZM98,197.52l-14.41,8.32v-.67L98,196.85Zm0-3.91v.78l-14.41,8.32v-.78ZM98,196l-14.41,8.32v-.67L98,195.29ZM84.37,185.59a.41.41,0,0,1,.19-.33L97.09,178c.11-.06.2,0,.2.11v1.64a.42.42,0,0,1-.2.33l-12.53,7.24c-.11.06-.19,0-.19-.11ZM81.74,187c.46-.27.84-.05.84.48a1.85,1.85,0,0,1-.84,1.45c-.46.27-.84.05-.84-.48A1.85,1.85,0,0,1,81.74,187Zm-.84,6.85a5.65,5.65,0,0,1,2.55-4.42l7-4v9.07l-9.12,5.27c-.22.12-.4,0-.4-.23Zm.34,8.63c.74-.43,1.35-.08,1.35.77a3,3,0,0,1-1.35,2.33c-.74.43-1.34.08-1.34-.78A3,3,0,0,1,81.24,202.44Zm3.58,4.38c-.47.27-.88.18-1.07-.16l14.16-8.18a2.65,2.65,0,0,1-1.08,1.4Z" style="fill:#fff"></path></g></g><g id="freepik--Character--inject-136"><g id="freepik--character--inject-136"><g id="freepik--Backpack--inject-136"><path d="M293.8,331.44c1.51-.39,9.56-5,10.38-5.53s2.44-1.71,2.44-3.69c0-1.77-.18-18.35-1.62-26.36a18.65,18.65,0,0,0-8.28-12.22c-5-3.1-10-5.35-14.29-3.59s-8.11,5-9.78,8.92-2.82,11.76-2.93,14.79,0,13.43,0,14.35.16,2.13,5.14,5.21,11.84,6.78,14,7.73A8.12,8.12,0,0,0,293.8,331.44Z" style="fill:#F07C1C"></path><path d="M295,285.8c.46.26,1.79-.39,2-.72a7.65,7.65,0,0,0-.74-4.75c-1-1.57-7.18-4.46-8.71-4.25a4.25,4.25,0,0,0-2.84,1.82c-.19.4-.4,3.05,0,3.59s1.81-.29,1.93-.52-.46-2.17.54-2.57,5.21,1.46,7,2.94c.76.64.72,2.23.69,3S294.81,285.66,295,285.8Z" style="fill:#F07C1C"></path><path d="M295,285.8c.46.26,1.79-.39,2-.72a7.65,7.65,0,0,0-.74-4.75c-1-1.57-7.18-4.46-8.71-4.25a4.25,4.25,0,0,0-2.84,1.82c-.19.4-.4,3.05,0,3.59s1.81-.29,1.93-.52-.46-2.17.54-2.57,5.21,1.46,7,2.94c.76.64.72,2.23.69,3S294.81,285.66,295,285.8Z" style="opacity:0.1"></path><path d="M296.29,304.48c-.89-8.62-2.49-13.65-10.92-17.41s-11.7-.55-12.89,2.32c-1.58,4-2.65,11.44-2.76,14.37s0,13.43,0,14.35.16,2.13,5.14,5.21,11.84,6.78,14,7.73a8.12,8.12,0,0,0,5,.39,6.86,6.86,0,0,0,1-.39C297.4,327.7,297.1,312.34,296.29,304.48Z" style="opacity:0.1"></path><path d="M276.64,283.71c2.2-1.29,5.81-2.14,11.11.22,9.48,4.22,11.89,9.51,12.84,18.77.18,1.7.43,3.72.54,5.9l.78-.47c-.11-2.35-.33-4.36-.53-6.18-1-9.35-3.85-14.51-12.91-18.55-5-2.23-8.31-1.93-10.49-.84A17.32,17.32,0,0,0,276.64,283.71Z" style="opacity:0.1"></path><path d="M276.31,284c2.2-1.29,5.81-2.14,11.11.22,9.48,4.22,11.89,9.51,12.84,18.77.18,1.7.43,3.72.54,5.9l.78-.47c-.11-2.35-.33-4.36-.53-6.18-1-9.35-3.85-14.51-12.91-18.55-5-2.23-8.4-1.86-10.57-.76A13.45,13.45,0,0,0,276.31,284Z" style="fill:#fff"></path><path d="M279.38,292.14l2.86-1.64a.63.63,0,0,1,.84.23l2.94,5.11a.61.61,0,0,1-.23.84L283,298.33a.62.62,0,0,1-.84-.22l-3-5.14A.6.6,0,0,1,279.38,292.14Z" style="fill:#37474f"></path><path d="M282.45,297.75l-2.82-4.87a.3.3,0,0,1,.11-.42l2.6-1.48a.32.32,0,0,1,.42.11l2.78,4.85a.3.3,0,0,1-.11.42l-2.56,1.5A.32.32,0,0,1,282.45,297.75Z" style="fill:#455a64"></path><path d="M281.84,295.42h0a.57.57,0,0,1-.27-.43v-2.33c0-.15.12-.2.27-.12h0a.58.58,0,0,1,.28.43v2.33C282.12,295.45,282,295.5,281.84,295.42Z" style="fill:#37474f"></path><path d="M283.36,296.29h0a.55.55,0,0,1-.27-.43v-2.33c0-.15.12-.2.27-.11h0a.57.57,0,0,1,.27.43v2.33C283.63,296.33,283.51,296.38,283.36,296.29Z" style="fill:#37474f"></path><path d="M300.62,307a14.63,14.63,0,0,0-.47,2.74c0,.19.25.29.33.29a3.41,3.41,0,0,0,1.6-.83,15.57,15.57,0,0,0-.43-2.34Z" style="fill:#263238"></path><circle cx="301.08" cy="306.24" r="1" style="fill:#263238"></circle><path d="M287.58,278.35c-1.09-.1-2.12,0-2.38,1.09a3.55,3.55,0,0,0,0,2.23,2.58,2.58,0,0,0,1.47-.7c.13-.24-.46-2.17.54-2.57a1,1,0,0,1,.37,0Z" style="opacity:0.1"></path><path d="M298.72,314l5.82-3.39a.92.92,0,0,1,1,.07,7,7,0,0,1,2.24,4.08c.85,3.69.62,8.57-.33,9.13l-6.3,3.67c-.94.56-2.28-.61-2.62-1C297.89,325.73,298.06,317,298.72,314Z" style="fill:#F07C1C"></path><path d="M298.72,314s1.19,1,2,4.67,1.38,8.34.43,8.89-2.28-.61-2.62-1C297.89,325.73,298.06,317,298.72,314Z" style="opacity:0.1"></path><path d="M305.27,311.23c.7.35,1.87,1.28,2.39,3.78a1.88,1.88,0,0,1-.59,1.9c-.48.34-2.66,1.38-4,2.19-1.18.71-1.79-.23-2.05-.81h0c-.43-1-.81-1.85-1.14-2.47a5.18,5.18,0,0,0-1.13-1.82l5.61-2.72A1,1,0,0,1,305.27,311.23Z" style="opacity:0.1"></path><path d="M304.62,310.56a1,1,0,0,1,.94,0c.69.34,1.87,1.28,2.39,3.78a1.85,1.85,0,0,1-.59,1.89c-.48.34-2.66,1.38-4,2.2-1.18.7-1.79-.23-2.05-.82h0c-1.43-3-2.56-3.58-2.56-3.58Z" style="fill:#F07C1C"></path><path d="M304.62,310.56a1,1,0,0,1,.94,0c.69.34,1.87,1.28,2.39,3.78a1.85,1.85,0,0,1-.59,1.89c-.48.34-2.66,1.38-4,2.2-1.18.7-1.79-.23-2.05-.82h0c-1.43-3-2.56-3.58-2.56-3.58Z" style="fill:#fff;opacity:0.4"></path><polygon points="273.43 305.88 290.73 315.88 290.73 316.9 273.43 306.9 273.43 305.88" style="fill:#fff"></polygon><polygon points="273.43 307.5 290.73 317.49 290.73 316.9 273.43 306.9 273.43 307.5" style="opacity:0.1"></polygon><path d="M291.3,317.33a14.86,14.86,0,0,1,.46,2.74c0,.19-.25.29-.32.29a3.41,3.41,0,0,1-1.6-.83,15.57,15.57,0,0,1,.43-2.34Z" style="fill:#263238"></path><circle cx="290.84" cy="316.6" r="1" style="fill:#263238"></circle></g><g id="freepik--Personaje--inject-136"><polygon points="309.3 406.9 302.3 406.18 303.75 395.48 311.33 396.19 309.3 406.9" style="fill:#ffa8a7"></polygon><path d="M302.89,401.84l.13-.95c-.69.26-4.56,7.31-6.93,10.23s-6.36,5.57-7.23,7.78,5,3.76,7.07,3.49c2.42-.32,6.65-1.81,7.76-3.33s1.71-3.79,2.61-4.9,4.38-3.43,4.92-5.34a18.58,18.58,0,0,0-.26-5.11c-.26-1.25-.15-2.62-.58-2.52l-.19,1c-.53.54-2.21.77-3.8.75C305.37,403,302.84,402.62,302.89,401.84Z" style="fill:#263238"></path><polygon points="285.6 393.05 278.2 392.3 282.02 380.78 289.87 380.57 285.6 393.05" style="fill:#ffa8a7"></polygon><path d="M279,389.83c-.35,0-.89.39-1.82,1.19a73.79,73.79,0,0,1-7.84,4.8c-2.51,1.26-7.38,3.19-9.58,4.18-1.38.62-1.32,2.28.11,3.23a12,12,0,0,0,9.07,2c2.25-.5,9.35-4.36,11.21-4.24s5.31.08,6.68-.86.74-4.28.35-6c-.42-1.89-.06-3.9-.69-3.77l-.44,1.29c-.8,1.22-7.48.27-7.38-.83Z" style="fill:#263238"></path><path d="M347,330.27c1.47,10.33-.51,12.32-10.33,22.22-5.29,5.33-16.46,12.74-16.46,12.74a30.72,30.72,0,0,1-1.13,13c-2.39,7.82-8.32,21.59-8.32,21.59a10,10,0,0,1-7.85-.3s1.79-11.49,2.62-19.71c1.3-13,2.43-17.36,3-19.76.5-2.11,11.8-13.9,14.1-17.44L299.79,354s-.11,7-1.49,10.84c-3.57,9.8-11.12,24.7-11.12,24.7s-5.75.58-8.16-1.3c0,0,7.32-35.9,8.23-38.94,1.6-5.3,20.95-19.21,24.91-22.56,2.26-1.92,4.79-4,4.79-4Z" style="fill:#37474f"></path><path d="M347,330.27l-6.05-1.5.18,1.87A27.78,27.78,0,0,1,333,350c-8.59,8.47-15.91,13.42-16.34,15.25s-.93,17.64-8.66,35.17a10.07,10.07,0,0,0,2.74-.62s5.93-13.77,8.32-21.59a30.72,30.72,0,0,0,1.13-13s11.17-7.41,16.46-12.74C346.47,342.59,348.45,340.6,347,330.27Z" style="fill:#263238"></path><path d="M322.61,342.57a15.29,15.29,0,0,1-4.85-6.93,35,35,0,0,0,.75,5.27c.58,2.3-18.72,13.13-18.72,13.13Z" style="fill:#263238"></path><path d="M318.21,303.36s-13.63-13.44-16.12-15.67a15.79,15.79,0,0,0-11.36-3.19c-3.52.6-3.33,3.3-.28,4.59,5,2.12,6.54,4.07,6.41,4.29s-3.61-1.44-5.09-.61-.71,1.89,0,2.09,3.75,1.63,5.38,2.13,4,.54,6.22,2.09S314.3,314,318,316.14s4.2-12.48,4.2-12.48Z" style="fill:#ffa8a7"></path><path d="M327.09,282.54c-3.38-.45-5.88.27-7.86,3.32s-3.14,15.42-3.14,15.42.71,3,3,4S327.09,282.54,327.09,282.54Z" style="fill:#e0e0e0"></path><path d="M345.14,288.29s2.34,1.92,2.34,8v13.11l-.33,22c-4.69,5.1-25.79,3.17-31-8,0,0,.76-23.55,1.46-28.71,1-7,2.72-12.07,9.48-12.22l10.32,2.4Z" style="fill:#f0f0f0"></path><path d="M351.27,352a8.66,8.66,0,0,1-2.92,2.43,10.24,10.24,0,0,1-4.75.81,5.5,5.5,0,0,1-2.09-.39,2.2,2.2,0,0,1-1.27-1.33c-.1-.6.52-1.11.94-1.45a16.75,16.75,0,0,0,1.95-2c.3-.34.6-.69.87-1.06s.6-1,.9-1.41c.17-.25.6-1,.18-1.18a.74.74,0,0,0-.53,0c-.54.13-1.06.32-1.61.44a2.86,2.86,0,0,1-1.64-.08.91.91,0,0,1-.55-.5.78.78,0,0,1,.14-.72,2.31,2.31,0,0,1,.56-.52l1.87-1.38c1.23-.92,2.69-1.47,3.6-2.79a8.34,8.34,0,0,0,1-3.25c.72-3.69,1.49-18.26,1.49-18.26l-4.76-16.95s-4.4-9.09.48-14.07c2.25,1,4.89.8,7.78,10.79,2.07,7.17,5.69,16.83,5.69,20a21.49,21.49,0,0,1-.39,4c-1.33,7-2.67,13.08-3.86,20.13-.1.61-.08,1.22-.19,1.81C353.42,349.26,352.06,351,351.27,352Z" style="fill:#ffa8a7"></path><path d="M345.14,288.29a8.19,8.19,0,0,1,4.49,2.33,27,27,0,0,1,4.3,9.13c1.17,4.33,3,9.87,3,9.87a12.5,12.5,0,0,1-10,3.62l-3.58-11.66S339.93,291.32,345.14,288.29Z" style="fill:#e0e0e0"></path><circle cx="326.15" cy="263.97" r="9.5" transform="translate(-5.69 520.75) rotate(-76.72)" style="fill:#263238"></circle><path d="M341.69,269.64s-1.45,6.84-2,8a3.09,3.09,0,0,1-1.79,1.44l.1-4.81Z" style="fill:#263238"></path><path d="M339.87,259.83a3.39,3.39,0,0,1,2.79,1c1.2,1.22.53,5.06-1,8.82L339,270Z" style="fill:#263238"></path><path d="M338.13,270c.55.33,1.33-.73,2-1.44a2.39,2.39,0,0,1,4,.65c1.13,2.37-1,5.5-2.72,6.05-3,.95-3.46-1-3.46-1l-.23,10.84c-2.59,2.89-11.44,2.2-9.77-.29v-3.3a18.68,18.68,0,0,1-4.06.21c-2.21-.34-3.6-2.09-4.27-4.48-1.07-3.84-1.48-6.94-.57-14.5,1-8.28,10.64-8.37,15.84-5.1S338.13,270,338.13,270Z" style="fill:#ffa8a7"></path><path d="M338.13,270.88c.27,0,1.33-1.74,2-2.36.95-.87-.27-8.69-.27-8.69a3.7,3.7,0,0,0-.92-3.95c-1.3-1.43-3.47-1.59-7.18-2.17-1.95-.31-4.9-.85-6.84-1.22-2.32-.43-4.25-.88-5.88.54a4.11,4.11,0,0,0-1.14,4.61,3.59,3.59,0,0,0,.66,1,3.81,3.81,0,0,0,1.67,1.16s1,.89,4.53,1.32a52.22,52.22,0,0,0,9.75-.18c1-.14,1.24.85,1.79,3.55C336.8,266.84,337.2,270.86,338.13,270.88Z" style="fill:#263238"></path><path d="M339.86,260.44l3.33-1.78a1.83,1.83,0,0,0-2.52-.84A2,2,0,0,0,339.86,260.44Z" style="fill:#263238"></path><path d="M328,281.49s4.93-1,6.65-1.91a5.66,5.66,0,0,0,2.39-2.36,7.6,7.6,0,0,1-1.36,2.78c-1.26,1.62-7.68,2.81-7.68,2.81Z" style="fill:#f28f8f"></path><path d="M329.15,268.72a1,1,0,1,0,1-1A1,1,0,0,0,329.15,268.72Z" style="fill:#263238"></path><path d="M330.74,264.63l2.11,1.17a1.27,1.27,0,0,0-.49-1.69A1.18,1.18,0,0,0,330.74,264.63Z" style="fill:#263238"></path><path d="M328.41,275.55l-2.26.85a1.19,1.19,0,0,0,1.54.75A1.26,1.26,0,0,0,328.41,275.55Z" style="fill:#f28f8f"></path><path d="M320.08,265.5,322,264a1.17,1.17,0,0,0-1.68-.25A1.28,1.28,0,0,0,320.08,265.5Z" style="fill:#263238"></path><path d="M320.93,268.44a1,1,0,0,0,1,1,1,1,0,0,0,1-1,1,1,0,1,0-2,0Z" style="fill:#263238"></path><polygon points="325.81 267.65 325.7 273.64 322.15 272.86 325.81 267.65" style="fill:#f28f8f"></polygon></g></g></g><g id="freepik--Cloud--inject-136"><path id="freepik--Nube--inject-136" d="M392,136.55l7.31,4.22a8.14,8.14,0,0,1-.06-1v-2.12c0-3.77,2.64-5.3,5.91-3.41a11.42,11.42,0,0,1,3.52,3.39c.53-4.74,4.25-6.51,8.77-3.9,4.88,2.82,8.84,9.67,8.84,15.31v3.17a8.32,8.32,0,0,1-.75,3.67l6.07,3.5a7.26,7.26,0,0,1,3.28,5.68c0,2.09-1.47,2.94-3.28,1.89L392,144.11a7.23,7.23,0,0,1-3.28-5.67C388.73,136.35,390.2,135.5,392,136.55Z" style="fill:#ebebeb"></path></g></svg>