<svg xmlns="http://www.w3.org/2000/svg" viewBox="0 0 500 500"><g id="freepik--Floor--inject-106"><path d="M120.6,388.68c73,38.15,191.4,38.15,264.41,0s73-100,0-138.13-191.39-38.15-264.41,0S47.59,350.54,120.6,388.68Z" style="fill:#f5f5f5"></path></g><g id="freepik--Shadow--inject-106"><path d="M189.24,381.61,91.15,325a1.05,1.05,0,0,1,0-2l110.27-63.67a3.86,3.86,0,0,1,3.47,0L303,315.94c1,.56,1,1.45,0,2L192.7,381.61A3.83,3.83,0,0,1,189.24,381.61Z" style="fill:#ebebeb"></path></g><g id="freepik--Plants--inject-106"><path d="M408.37,304.14l-4.88-2.42A80.91,80.91,0,0,1,406,283.41c3.64-13.43,14.88-23.91,23.52-24.56,11.15-.84,8.33,9.11,1.66,12.93C420.52,277.85,411.77,287.8,408.37,304.14Z" style="fill:#F07C1C"></path><g style="opacity:0.2"><path d="M408.37,304.14l-4.88-2.42A80.91,80.91,0,0,1,406,283.41c3.64-13.43,14.88-23.91,23.52-24.56,11.15-.84,8.33,9.11,1.66,12.93C420.52,277.85,411.77,287.8,408.37,304.14Z"></path></g><path d="M407.59,299.62h.06a.53.53,0,0,0,.48-.59c-1.15-11.45,9.94-31.55,22.87-36.41a.53.53,0,0,0,.31-.69.54.54,0,0,0-.69-.32c-13.32,5-24.75,25.72-23.56,37.53A.54.54,0,0,0,407.59,299.62Z" style="fill:#fff"></path><path d="M405.42,302.45c-.08-1.65,0-4.05,0-4.64a15.2,15.2,0,0,1,1.43-6,12.07,12.07,0,0,1,5.63-5.74c1.35-.64,2.89-1,3.83-2.19a8,8,0,0,0,1.26-3.58c.43-2,1.26-4.17,3-5.28s4-1,6-.56c2.93.57,5.66,1.21,8.55.09a59.59,59.59,0,0,1,7.09-2.49c3-.75,9.79-1.63,10.83,2.64a4.06,4.06,0,0,1-.9,3.34,12.28,12.28,0,0,1-2.71,2.31l-5,3.45a6,6,0,0,0-1.53,1.35c-1,1.45-.56,3.46-.91,5.21a6.28,6.28,0,0,1-3.22,4.17,8.44,8.44,0,0,1-5.28.8c-2.41-.37-6.19-2.57-7.91.16a9.07,9.07,0,0,0-1,3,5.89,5.89,0,0,1-1.26,2.87c-1.06,1.12-2.76,1.33-4.31,1.35a23.91,23.91,0,0,0-6.45.47c-.86.25-1.47,1.27-2,1.93C409.25,304.37,407.65,303.62,405.42,302.45Z" style="fill:#F07C1C"></path><path d="M406.87,301.72a.59.59,0,0,1-.23-.05.5.5,0,0,1-.22-.67c7.55-14.9,28.34-24.24,40.47-26.89a.49.49,0,0,1,.59.38.5.5,0,0,1-.38.6c-11.94,2.6-32.39,11.77-39.79,26.36A.5.5,0,0,1,406.87,301.72Z" style="fill:#fff"></path><path d="M436.07,287.62a.51.51,0,0,1-.31-.11c-3.88-3.11-9.64-4.06-9.7-4.07a.5.5,0,0,1-.41-.58.49.49,0,0,1,.57-.41c.25,0,6.08,1,10.16,4.28a.5.5,0,0,1,.08.7A.51.51,0,0,1,436.07,287.62Z" style="fill:#fff"></path><path d="M422.36,285.53l-.15,0a.5.5,0,0,1-.32-.63,26.79,26.79,0,0,0,.71-7.56.5.5,0,1,1,1-.08,28.07,28.07,0,0,1-.76,7.94A.5.5,0,0,1,422.36,285.53Z" style="fill:#fff"></path><path d="M65.62,291.2A5.29,5.29,0,0,0,64.7,289a5,5,0,0,0-3.2-1.6,36.47,36.47,0,0,1-3.63-.53,7.12,7.12,0,0,1-5-8.79c.33-1.16,1-2.23,1.27-3.39.84-3.06-1.52-4.34-3.69-5.81-1.51-1-4-2.53-3.67-4.7.59-4.05,6.55-5.07,12.26-3.45s8.74,2.9,13,1.75,8.18-1.4,10.41,2.4,0,7.36,2.86,10,8,.83,9.88,6.59v34.29c0-.2-1-.87-1.13-1L91,312c-1-.85-2.35-1.64-3-2.73-.92-1.51-1.38-3.3-2.33-4.82a11.67,11.67,0,0,0-4.46-4.36c-3.64-1.87-8-1.55-11.75-3.37a6.43,6.43,0,0,1-3.11-3A14,14,0,0,1,65.62,291.2Z" style="fill:#F07C1C"></path><path d="M65.62,291.2A5.29,5.29,0,0,0,64.7,289a5,5,0,0,0-3.2-1.6,36.47,36.47,0,0,1-3.63-.53,7.12,7.12,0,0,1-5-8.79c.33-1.16,1-2.23,1.27-3.39.84-3.06-1.52-4.34-3.69-5.81-1.51-1-4-2.53-3.67-4.7.59-4.05,6.55-5.07,12.26-3.45s8.74,2.9,13,1.75,8.18-1.4,10.41,2.4,0,7.36,2.86,10,8,.83,9.88,6.59v34.29c0-.2-1-.87-1.13-1L91,312c-1-.85-2.35-1.64-3-2.73-.92-1.51-1.38-3.3-2.33-4.82a11.67,11.67,0,0,0-4.46-4.36c-3.64-1.87-8-1.55-11.75-3.37a6.43,6.43,0,0,1-3.11-3A14,14,0,0,1,65.62,291.2Z" style="opacity:0.1"></path><path d="M95.38,308.3a.49.49,0,0,1-.49-.41c-3.62-20.62-27.77-39.67-42.15-43.23a.5.5,0,1,1,.24-1c14.63,3.62,39.2,23,42.89,44a.49.49,0,0,1-.4.58Z" style="fill:#fff"></path><path d="M61.19,279.62a.53.53,0,0,1-.4-.19.51.51,0,0,1,.09-.71c3.45-2.72,10.46-3.53,13.27-3.35a.5.5,0,0,1,.47.54.49.49,0,0,1-.53.46c-2.86-.19-9.5.7-12.59,3.14A.53.53,0,0,1,61.19,279.62Z" style="fill:#fff"></path><path d="M77.15,279a.41.41,0,0,1-.19,0,.5.5,0,0,1-.28-.65c1.83-4.43.83-11.92.82-12a.51.51,0,0,1,.43-.57.5.5,0,0,1,.56.43c.05.32,1.05,7.83-.88,12.51A.49.49,0,0,1,77.15,279Z" style="fill:#fff"></path><path d="M93.48,321.81c-1-3.09-6.09-9.59-15.23-14.68-7.94-4.42-20.2-7.71-19.12-13.54s12.36-6,20.16-1.27c9.79,5.89,15.29,17.93,15.94,22.68Z" style="fill:#F07C1C"></path><path d="M94.43,318.61a.49.49,0,0,1-.49-.4c-2-10.76-17.27-25.38-29.45-25.06a.5.5,0,1,1,0-1c12.63-.37,28.36,14.76,30.46,25.87a.51.51,0,0,1-.4.59Z" style="fill:#fff"></path></g><g id="freepik--Wifi--inject-106"><path d="M400.28,125.39a4.53,4.53,0,0,1-2.28,3.94h0L388.13,135a4.55,4.55,0,0,1-3.78.35,4.48,4.48,0,0,1-2.1,3l-.36.21h0l-9.55,5.52-.27.15a4.61,4.61,0,0,1-3.62.17,4.5,4.5,0,0,1-2.21,3.2l-9,5.2a19.13,19.13,0,0,1,2.71,9.17c0,3.27-1.31,5.43-3.33,6.23a4.42,4.42,0,0,1-1.09.63,4,4,0,0,1-1.1.63,440.89,440.89,0,0,1-2.19,1.27,4.62,4.62,0,0,1-1.1.63,4.37,4.37,0,0,1-1.09.63,4.62,4.62,0,0,1-1.1.63,4,4,0,0,1-1.09.63c-1.71,1.35-4.22,1.4-7.06-.24-5.13-3-9.3-10.17-9.3-16.12,0-3,1.06-5.08,2.75-5.95a4.66,4.66,0,0,1,.56-.22,4.26,4.26,0,0,1,.54-.41,5.25,5.25,0,0,1,.55-.22,3.49,3.49,0,0,1,.54-.41,3.43,3.43,0,0,1,.56-.22,4.34,4.34,0,0,1,.54-.42,5.2,5.2,0,0,1,.55-.21,4.34,4.34,0,0,1,.54-.42,3.4,3.4,0,0,1,.56-.21,3.57,3.57,0,0,1,.54-.42,5.25,5.25,0,0,1,.55-.22,4.26,4.26,0,0,1,.54-.41,4.66,4.66,0,0,1,.56-.22,4.26,4.26,0,0,1,.54-.41,5.25,5.25,0,0,1,.55-.22A4.26,4.26,0,0,1,343,146a5.42,5.42,0,0,1,.56-.22,3.49,3.49,0,0,1,.54-.41,8.23,8.23,0,0,0-.8-.66l-.82-.59-.81-.54c-.29-.19-.58-.37-.88-.54a19.17,19.17,0,0,0-3-1.4c-.32-.12-.64-.23-1-.32a12.31,12.31,0,0,0-3.58-.56l-.57,0-.42,0q-.32,0-.63,0a5.7,5.7,0,0,1-5-2.85l-.24-.41s2.2-7.58,2.22-7.61l7-4.2a16,16,0,0,1,4.53-2.23,5.93,5.93,0,0,1,.83-.12h.23a7.62,7.62,0,0,1,1.07,0l.38,0,.1,0a14.19,14.19,0,0,1,2.08.41A30.16,30.16,0,0,1,352.1,127c.54.31,1,.63,1.55,1-.87-.79-1.76-1.53-2.67-2.24-.41-.33-.82-.65-1.24-1a.9.9,0,0,0-.19-.15c-.36-.28-.73-.55-1.11-.82-.67-.48-1.35-1-2.05-1.42l-.92-.6c-.47-.31-1-.61-1.43-.9s-1.19-.72-1.79-1.07c-5.57-3.21-10.62-4.57-15.19-4.57l-.95,0-1.07.07c-.27,0-.53,0-.8.09l-.56.08-.5.08-.75.14-.87.21c-.31.08-.62.16-.93.26s-.52.16-.77.24h0a6,6,0,0,1-1.94.33,5.72,5.72,0,0,1-5-2.85l-.11-.19,1.71-7.32s0,0,.12-.1h0c.79-.56,4.69-3.27,5-3.45a35.89,35.89,0,0,1,5.76-2.72q1.23-.47,2.52-.84l1.14-.31c.38-.09.76-.19,1.15-.27.78-.17,1.56-.31,2.36-.43l1-.14.23,0L335,98a.09.09,0,0,1,.07,0l1.11-.07a1.6,1.6,0,0,1,.31,0,34.61,34.61,0,0,1,4.06.12,33.37,33.37,0,0,1,5.21.93l0,0A48,48,0,0,0,326.1,93a39.89,39.89,0,0,0-7.45.22c-.62.07-1.25.16-1.86.27h0l-.19,0c-.38.06-.74.13-1.11.22-.63.13-1.25.27-1.87.43s-1.22.34-1.82.53q-.66.19-1.29.42c-.55.19-1.1.4-1.63.61a6.37,6.37,0,0,1-2.4.47,6.71,6.71,0,0,1-5.78-3.37l-.14-.24h0c.08-.38,1.91-8.44,1.91-8.44l.05,0,.13-.1.09-.07c.92-.68,3.9-2.87,4.21-3a44.74,44.74,0,0,1,6.8-3.23q2-.75,4-1.32h0l1.45-.37,1.51-.34A46.86,46.86,0,0,1,325.4,75c.53-.06,1.06-.1,1.6-.14s1.08-.06,1.62-.08,1.09,0,1.64,0c8.84,0,18.54,2.41,28.57,8.2,3.91,2.26,7.43,4.45,10.67,6.68.4.27.79.54,1.17.82,1,.72,2,1.46,3,2.2l1.31,1c1,.76,1.91,1.53,2.83,2.33.37.31.72.62,1.08.94l.54.48,1.14,1.05a85,85,0,0,1,6.47,6.77l.78.93c.4.47.79,1,1.18,1.44.61.75,1.22,1.53,1.82,2.33l1.05,1.4c.74,1,1.48,2,2.22,3.14.36.53.73,1.06,1.09,1.61s.73,1.1,1.1,1.67.74,1.14,1.1,1.72c.74,1.17,1.49,2.37,2.24,3.62A4.51,4.51,0,0,1,400.28,125.39Z" style="fill:#F07C1C"></path><g style="opacity:0.2"><path d="M400.28,125.39a4.53,4.53,0,0,1-2.28,3.94h0L388.13,135a4.55,4.55,0,0,1-3.78.35,4.48,4.48,0,0,1-2.1,3l-.36.21h0l-9.55,5.52-.27.15a4.61,4.61,0,0,1-3.62.17,4.5,4.5,0,0,1-2.21,3.2l-9,5.2a19.13,19.13,0,0,1,2.71,9.17c0,3.27-1.31,5.43-3.33,6.23a4.42,4.42,0,0,1-1.09.63,4,4,0,0,1-1.1.63,440.89,440.89,0,0,1-2.19,1.27,4.62,4.62,0,0,1-1.1.63,4.37,4.37,0,0,1-1.09.63,4.62,4.62,0,0,1-1.1.63,4,4,0,0,1-1.09.63c-1.71,1.35-4.22,1.4-7.06-.24-5.13-3-9.3-10.17-9.3-16.12,0-3,1.06-5.08,2.75-5.95a4.66,4.66,0,0,1,.56-.22,4.26,4.26,0,0,1,.54-.41,5.25,5.25,0,0,1,.55-.22,3.49,3.49,0,0,1,.54-.41,3.43,3.43,0,0,1,.56-.22,4.34,4.34,0,0,1,.54-.42,5.2,5.2,0,0,1,.55-.21,4.34,4.34,0,0,1,.54-.42,3.4,3.4,0,0,1,.56-.21,3.57,3.57,0,0,1,.54-.42,5.25,5.25,0,0,1,.55-.22,4.26,4.26,0,0,1,.54-.41,4.66,4.66,0,0,1,.56-.22,4.26,4.26,0,0,1,.54-.41,5.25,5.25,0,0,1,.55-.22A4.26,4.26,0,0,1,343,146a5.42,5.42,0,0,1,.56-.22,3.49,3.49,0,0,1,.54-.41,8.23,8.23,0,0,0-.8-.66l-.82-.59-.81-.54c-.29-.19-.58-.37-.88-.54a19.17,19.17,0,0,0-3-1.4c-.32-.12-.64-.23-1-.32a12.31,12.31,0,0,0-3.58-.56l-.57,0-.42,0q-.32,0-.63,0a5.7,5.7,0,0,1-5-2.85l-.24-.41s2.2-7.58,2.22-7.61l7-4.2a16,16,0,0,1,4.53-2.23,5.93,5.93,0,0,1,.83-.12h.23a7.62,7.62,0,0,1,1.07,0l.38,0,.1,0a14.19,14.19,0,0,1,2.08.41A30.16,30.16,0,0,1,352.1,127c.54.31,1,.63,1.55,1-.87-.79-1.76-1.53-2.67-2.24-.41-.33-.82-.65-1.24-1a.9.9,0,0,0-.19-.15c-.36-.28-.73-.55-1.11-.82-.67-.48-1.35-1-2.05-1.42l-.92-.6c-.47-.31-1-.61-1.43-.9s-1.19-.72-1.79-1.07c-5.57-3.21-10.62-4.57-15.19-4.57l-.95,0-1.07.07c-.27,0-.53,0-.8.09l-.56.08-.5.08-.75.14-.87.21c-.31.08-.62.16-.93.26s-.52.16-.77.24h0a6,6,0,0,1-1.94.33,5.72,5.72,0,0,1-5-2.85l-.11-.19,1.71-7.32s0,0,.12-.1h0c.79-.56,4.69-3.27,5-3.45a35.89,35.89,0,0,1,5.76-2.72q1.23-.47,2.52-.84l1.14-.31c.38-.09.76-.19,1.15-.27.78-.17,1.56-.31,2.36-.43l1-.14.23,0L335,98a.09.09,0,0,1,.07,0l1.11-.07a1.6,1.6,0,0,1,.31,0,34.61,34.61,0,0,1,4.06.12,33.37,33.37,0,0,1,5.21.93l0,0A48,48,0,0,0,326.1,93a39.89,39.89,0,0,0-7.45.22c-.62.07-1.25.16-1.86.27h0l-.19,0c-.38.06-.74.13-1.11.22-.63.13-1.25.27-1.87.43s-1.22.34-1.82.53q-.66.19-1.29.42c-.55.19-1.1.4-1.63.61a6.37,6.37,0,0,1-2.4.47,6.71,6.71,0,0,1-5.78-3.37l-.14-.24h0c.08-.38,1.91-8.44,1.91-8.44l.05,0,.13-.1.09-.07c.92-.68,3.9-2.87,4.21-3a44.74,44.74,0,0,1,6.8-3.23q2-.75,4-1.32h0l1.45-.37,1.51-.34A46.86,46.86,0,0,1,325.4,75c.53-.06,1.06-.1,1.6-.14s1.08-.06,1.62-.08,1.09,0,1.64,0c8.84,0,18.54,2.41,28.57,8.2,3.91,2.26,7.43,4.45,10.67,6.68.4.27.79.54,1.17.82,1,.72,2,1.46,3,2.2l1.31,1c1,.76,1.91,1.53,2.83,2.33.37.31.72.62,1.08.94l.54.48,1.14,1.05a85,85,0,0,1,6.47,6.77l.78.93c.4.47.79,1,1.18,1.44.61.75,1.22,1.53,1.82,2.33l1.05,1.4c.74,1,1.48,2,2.22,3.14.36.53.73,1.06,1.09,1.61s.73,1.1,1.1,1.67.74,1.14,1.1,1.72c.74,1.17,1.49,2.37,2.24,3.62A4.51,4.51,0,0,1,400.28,125.39Z"></path></g><path d="M350.08,167.73c0,5.9-4.16,8.33-9.29,5.35s-9.3-10.16-9.3-16.11c0-3,1.06-5.08,2.75-5.95s4-.87,6.55.59a20.48,20.48,0,0,1,9.29,16.12Z" style="fill:#F07C1C"></path><path d="M357.84,146.72a45.67,45.67,0,0,0-15.59-14.07,28.08,28.08,0,0,0-9.38-3.54,5.94,5.94,0,0,0-5.29,1.71l-.06.07a5.87,5.87,0,0,0-1.06,6.62,4.78,4.78,0,0,0,.23.45,5.7,5.7,0,0,0,5,2.85q.31,0,.63,0l.42,0,.57,0a12.31,12.31,0,0,1,3.58.56c.32.09.64.2,1,.32a19.17,19.17,0,0,1,3,1.4c.3.17.59.35.88.54s.55.35.81.54.55.38.82.59.55.42.82.64a34.9,34.9,0,0,1,6.26,6.7,4.58,4.58,0,0,0,7.46-5.3Z" style="fill:#F07C1C"></path><path d="M373.9,137.76c-8.28-13.38-16.76-22.09-29.34-29.52a33.26,33.26,0,0,0-28.7-2.59,5.49,5.49,0,0,0-1.21.61h0l-.12.1a5.71,5.71,0,0,0-1.71,7.32l.11.19a5.72,5.72,0,0,0,5,2.85,6,6,0,0,0,1.94-.33h0c.25-.08.51-.17.77-.24s.62-.18.93-.26l.87-.21.75-.14.5-.08.56-.08c.27,0,.53-.07.8-.09l1.07-.07.95,0c4.57,0,9.62,1.36,15.19,4.57l1.79,1.07c.48.29,1,.59,1.43.9l.92.6c.7.46,1.38.94,2.05,1.42.38.27.75.54,1.11.82a.9.9,0,0,1,.19.15c.42.3.83.62,1.24,1,.91.71,1.8,1.45,2.67,2.24,0,0,0,0,.05,0a69.09,69.09,0,0,1,12.5,14.74,4.43,4.43,0,0,0,2.23,1.77,4.61,4.61,0,0,0,3.62-.17l.27-.15a4.59,4.59,0,0,0,1.58-6.4Z" style="fill:#F07C1C"></path><path d="M389.77,128.74c-12-20-22-29.27-40.8-40.15C332.28,79,316.5,78.7,304.1,83.28a7.53,7.53,0,0,0-1.39.7l-.09.07-.13.1-.05,0a6.69,6.69,0,0,0-1.91,8.43h0c0,.09.09.16.14.25a6.71,6.71,0,0,0,5.78,3.37,6.37,6.37,0,0,0,2.4-.47c.53-.21,1.08-.42,1.63-.61s.85-.29,1.29-.42c.6-.19,1.2-.37,1.82-.53s1.24-.3,1.87-.43c.37-.09.73-.16,1.11-.22l.19,0h0c.61-.11,1.24-.2,1.86-.27A39.08,39.08,0,0,1,326.1,93,47.56,47.56,0,0,1,345.86,99h0l1.49.84c15.8,9.12,24.51,17,34.6,33.64a4.56,4.56,0,0,0,7.8-4.71Z" style="fill:#F07C1C"></path></g><g id="freepik--Poster--inject-106"><polygon points="328.49 308.68 359.25 290.92 345.41 246.97 328.49 308.68" style="fill:#37474f"></polygon><path d="M327.25,317.39a2.89,2.89,0,0,0,1.14-1.46l20.48-71-3.46,2-20.76,71.92Z" style="fill:#263238"></path><path d="M322.06,317.39l2.59,1.5L345.41,247,342,245l-20.48,71A1.33,1.33,0,0,0,322.06,317.39Z" style="fill:#37474f"></path><path d="M414.41,313.91a1.47,1.47,0,0,1-.66,1.48l-2.59,1.5L390.4,221l3.46-2,17.68,81.69Z" style="fill:#37474f"></path><path d="M408.56,315.39a2.51,2.51,0,0,1-1.07-1.48L386.94,219l3.46,2,20.76,95.89Z" style="fill:#263238"></path><path d="M345.41,247l20.76,95.89-2.59-1.5a2.55,2.55,0,0,1-1.08-1.47L342,245Z" style="fill:#263238"></path><path d="M368.77,341.36a1.43,1.43,0,0,0,.65-1.47L348.87,245l-3.46,2,20.76,95.89Z" style="fill:#37474f"></path><polygon points="390.4 217 393.86 219 345.41 246.97 341.95 244.97 390.4 217" style="fill:#37474f"></polygon><polygon points="393.86 219 345.41 246.97 363.1 328.66 411.54 300.69 393.86 219" style="fill:#455a64"></polygon><path d="M364.56,271.39c-.51,0-.8,0-.86,0a.63.63,0,0,1-.43-.24.65.65,0,0,1-.13-.47c.2-1.83,1.64-6.56,10.52-11.06,7.23-3.67,12.68-2.64,13.75-2.16a.64.64,0,0,1,.33.82c-.07.18-1.87,4.45-9.88,9.07C371.52,271,366.49,271.39,364.56,271.39Zm19.21-13.18a21.19,21.19,0,0,0-9.54,2.51c-7.38,3.75-9.23,7.6-9.69,9.39a26.32,26.32,0,0,0,12.68-3.9c5.82-3.35,8.18-6.47,9-7.78A12.16,12.16,0,0,0,383.77,258.21Z" style="fill:#fff"></path><path d="M375,286.3a8.16,8.16,0,0,1-3.43-.73c-4.93-2.24-7.1-9-8.43-14.7a.64.64,0,1,1,1.24-.29c1.27,5.38,3.29,11.82,7.72,13.83,2.38,1.08,5.27.72,8.6-1.05,9.59-5.09,8.46-16.49,5.83-25.16a.64.64,0,1,1,1.22-.37c4,13.09,1.75,22.31-6.45,26.66A13.61,13.61,0,0,1,375,286.3Z" style="fill:#fff"></path><path d="M388.93,272.37a.64.64,0,0,1-.59-.4.63.63,0,0,1,.35-.83c2.95-1.21,4.18-4.25,4.34-6.69.13-1.95-.42-3.33-1-3.68a1.35,1.35,0,0,0-1.1-.15,4.36,4.36,0,0,0-2.08,2,.64.64,0,0,1-1.14-.59,5.86,5.86,0,0,1,2.86-2.68,2.61,2.61,0,0,1,2.1.27c1.16.67,1.81,2.59,1.65,4.88-.19,2.82-1.63,6.35-5.13,7.78A.69.69,0,0,1,388.93,272.37Z" style="fill:#fff"></path><path d="M367.26,259.79l-.18-.08a2.29,2.29,0,0,1-.5-.25l-.34-.25-.34-.34a4.2,4.2,0,0,1-.64-1,5.45,5.45,0,0,1-.39-1.35,7,7,0,0,1-.1-1.53,11.63,11.63,0,0,1,.6-3.25c.18-.54.4-1,.59-1.52a10.3,10.3,0,0,0,.43-1.37,5,5,0,0,0,0-2.47,4,4,0,0,0-.9-1.58,4.29,4.29,0,0,0-.39-.38l-.14-.13a4.37,4.37,0,0,1,.69.31,3.57,3.57,0,0,1,1.42,1.5,5,5,0,0,1,.42,2.94,7.65,7.65,0,0,1-.39,1.62c-.18.51-.38,1-.53,1.48s-.31,1-.43,1.48a12.64,12.64,0,0,0-.26,1.45,10.76,10.76,0,0,0-.08,1.36,7.32,7.32,0,0,0,.14,1.2,5.36,5.36,0,0,0,.35,1,3.89,3.89,0,0,0,.44.67,2.37,2.37,0,0,0,.38.39Z" style="fill:#fff"></path><path d="M370.29,256.14l-.14-.16a5.53,5.53,0,0,1-.38-.44,6.25,6.25,0,0,1-.47-.81,4.2,4.2,0,0,1-.35-1.18,5.4,5.4,0,0,1-.06-1.46,9.78,9.78,0,0,1,.25-1.58c.24-1.07.61-2.14.88-3.2.14-.53.29-1.08.37-1.58a7.12,7.12,0,0,0,.12-1.49,6.45,6.45,0,0,0-.23-1.35,5,5,0,0,0-1.23-2,7.91,7.91,0,0,0-.65-.59,6.71,6.71,0,0,0-.63-.45,4.52,4.52,0,0,1,.76.23,5.32,5.32,0,0,1,1.78,1.2,5,5,0,0,1,1.32,2.84,8.69,8.69,0,0,1,.05.89,6,6,0,0,1-.07.89,15.88,15.88,0,0,1-.36,1.72c-.32,1.12-.71,2.19-1,3.17-.15.49-.3,1-.39,1.41a6.58,6.58,0,0,0-.16,1.27,3.51,3.51,0,0,0,0,.57,2.18,2.18,0,0,0,.07.52,5.78,5.78,0,0,0,.22.83C370.17,255.87,370.29,256.14,370.29,256.14Z" style="fill:#fff"></path><path d="M375.46,256l-.18-.08a1.82,1.82,0,0,1-.51-.27,3.1,3.1,0,0,1-.7-.61l-.34-.46c-.1-.18-.19-.37-.29-.58a6,6,0,0,1-.38-1.38A6.85,6.85,0,0,1,373,251a11.79,11.79,0,0,1,.66-3.31c.19-.55.42-1.06.61-1.55s.36-1,.49-1.43a6.37,6.37,0,0,0,.23-2.57,3.84,3.84,0,0,0-.31-1,3.49,3.49,0,0,0-.44-.71,3.58,3.58,0,0,0-.37-.42l-.13-.14a4.14,4.14,0,0,1,.67.38,3.13,3.13,0,0,1,.68.62,3.48,3.48,0,0,1,.61,1.06,5.74,5.74,0,0,1,.15,3,9.71,9.71,0,0,1-.43,1.62c-.19.53-.4,1-.56,1.53a13.72,13.72,0,0,0-.45,1.51,13.87,13.87,0,0,0-.3,1.48,11.58,11.58,0,0,0-.09,1.4,6.77,6.77,0,0,0,.12,1.24,5.71,5.71,0,0,0,.35,1,3.58,3.58,0,0,0,.45.69,3.05,3.05,0,0,0,.38.4Z" style="fill:#fff"></path><path d="M379.12,301.26c.14-.08.29,0,.29.18a6.28,6.28,0,0,1-3.08,4.6c-2.28,1.32-3.93.8-3.93-2.23a7.26,7.26,0,0,1,3.68-6.33c1.53-.88,2.27-.34,2.27.46a1.18,1.18,0,0,1-.52.91c-.31.18-.39.09-.39.09a1.51,1.51,0,0,0,.07-.45c0-.77-.5-1-1.49-.44a6.36,6.36,0,0,0-2.61,5.18c0,2.57,1.37,3.15,2.92,2.26a5,5,0,0,0,2.57-4A.62.62,0,0,1,379.12,301.26Z" style="fill:#fff"></path><path d="M381.19,302.67c-1.2.7-2.24.43-2.24-1.22a4.35,4.35,0,0,1,2.19-3.75c1.22-.71,2.19-.42,2.19,1.22A4.53,4.53,0,0,1,381.19,302.67Zm0-.43a2,2,0,0,0,1-1.53,1.78,1.78,0,0,1-2.19-.49c0,.19,0,.4,0,.62C380,302.34,380.35,302.73,381.19,302.24Zm-.79-3.12c0,1,.87,1.43,1.86,1.13,0-.22,0-.46,0-.73,0-1.48-.24-1.92-1.15-1.39A1.35,1.35,0,0,0,380.4,299.12Z" style="fill:#fff"></path><path d="M385.08,296v8.46a1.09,1.09,0,0,1-.42.4c-.3.17-.57.13-.57-.35v-9.65c0-1.79.31-2.9,1.35-3.5.73-.42,1.09-.16,1.09.84a5.54,5.54,0,0,1-1.14,3.24l1-.57c.32-.18.38-.09.38.17Zm1-3.51c0-.75-.22-.93-.53-.75s-.42.6-.45,3.64A4.67,4.67,0,0,0,386.06,292.45Z" style="fill:#fff"></path><path d="M388.16,294.18v8.46a1.09,1.09,0,0,1-.42.4c-.3.17-.57.13-.57-.34V293c0-1.79.31-2.9,1.35-3.5.73-.42,1.09-.16,1.09.84a5.54,5.54,0,0,1-1.14,3.24l1-.57c.32-.18.38-.09.38.17Zm1-3.51c0-.75-.22-.93-.53-.75s-.42.6-.45,3.65A4.71,4.71,0,0,0,389.14,290.67Z" style="fill:#fff"></path><path d="M394.87,292.27c.14-.09.23,0,.23.22a4.35,4.35,0,0,1-2.21,3.43c-1.62.93-2.63.68-2.63-.89a4.48,4.48,0,0,1,2.19-3.86c1-.58,1.33-.1,1.33.47a4.52,4.52,0,0,1-2.44,3.33c.14.88.73,1,1.55.52a3.67,3.67,0,0,0,1.81-3.06S394.71,292.36,394.87,292.27Zm-3.57,2.31a3.5,3.5,0,0,0,1.69-2.41c0-.58-.27-.73-.72-.47-.68.39-1,1.15-1,2.78Z" style="fill:#fff"></path><path d="M399.34,289.68c.15-.08.23,0,.23.22a4.3,4.3,0,0,1-2.21,3.43c-1.61.94-2.62.69-2.62-.89a4.49,4.49,0,0,1,2.18-3.86c1-.58,1.34-.1,1.34.48a4.52,4.52,0,0,1-2.45,3.32c.15.89.74,1,1.55.52a3.68,3.68,0,0,0,1.82-3.06S399.19,289.77,399.34,289.68ZM395.78,292a3.45,3.45,0,0,0,1.68-2.41c0-.57-.26-.73-.71-.47-.68.4-1,1.16-1,2.78Z" style="fill:#fff"></path></g><g id="freepik--Chair--inject-106"><path d="M310.77,227.38v51.27a1.42,1.42,0,0,0,.65,1.12l1.74,1a1.42,1.42,0,0,0,1.3,0l1.75-1a1.45,1.45,0,0,0,.65-1.13V227.38a.76.76,0,0,0-.75-.75h-4.59A.75.75,0,0,0,310.77,227.38Z" style="fill:#263238"></path><path d="M316.11,226.63h-1.55a.76.76,0,0,0-.75.75v53c0,.41.29.58.65.37l1.75-1a1.45,1.45,0,0,0,.65-1.13V227.38A.76.76,0,0,0,316.11,226.63Z" style="fill:#455a64"></path><path d="M281.35,244.3v51.27a1.42,1.42,0,0,0,.65,1.12l1.74,1a1.42,1.42,0,0,0,1.3,0l1.75-1a1.42,1.42,0,0,0,.65-1.12V244.3a.75.75,0,0,0-.75-.75H282.1A.75.75,0,0,0,281.35,244.3Z" style="fill:#263238"></path><path d="M286.69,243.55h-1.55a.76.76,0,0,0-.75.75v53c0,.41.3.58.65.37l1.75-1a1.42,1.42,0,0,0,.65-1.12V244.3A.75.75,0,0,0,286.69,243.55Z" style="fill:#455a64"></path><path d="M283.3,206.67a2.75,2.75,0,0,1-2.39,3.07l-.34,0a2.75,2.75,0,0,1-2.73-2.41c-1.58-12.66.67-41,6.09-56.92a2.74,2.74,0,0,1,4-1.5h0a2.73,2.73,0,0,1,1.21,3.27C283.91,167.19,281.78,194.48,283.3,206.67Z" style="fill:#455a64"></path><path d="M315.19,214a1.75,1.75,0,0,1-1.66-1.2C310,202,291.63,191.86,280,191.86a1.75,1.75,0,0,1,0-3.5c12.87,0,32.8,11,36.86,23.29a1.75,1.75,0,0,1-1.12,2.21A1.7,1.7,0,0,1,315.19,214Z" style="fill:#37474f"></path><path d="M317.07,198a1.74,1.74,0,0,1-1.66-1.21c-3.7-11.22-22.52-20.64-33.88-19.47a1.75,1.75,0,0,1-.36-3.48c12.84-1.31,33.34,9.05,37.56,21.86a1.75,1.75,0,0,1-1.12,2.21A1.7,1.7,0,0,1,317.07,198Z" style="fill:#37474f"></path><path d="M321.3,185.63a1.76,1.76,0,0,1-1.61-1c-5.39-12.27-25.15-22.76-35.4-21.34a1.75,1.75,0,1,1-.48-3.46c11.62-1.61,33.06,9.67,39.09,23.4a1.74,1.74,0,0,1-.9,2.3A1.76,1.76,0,0,1,321.3,185.63Z" style="fill:#37474f"></path><path d="M325.41,170.6a2.74,2.74,0,0,1,1.13,3.47c-6.32,14.77-9.65,32.82-9.65,52.58v2.65l-.21.22a1.1,1.1,0,0,1-.83.34,3.35,3.35,0,0,1-1.15-.28,4.36,4.36,0,0,0-.56-.18,2.75,2.75,0,0,1-2.75-2.75c0-20.5,3.49-39.28,10.11-54.75a2.74,2.74,0,0,1,3.9-1.31Z" style="fill:#455a64"></path><path d="M316.86,228.65v.67a4.43,4.43,0,0,1-1.62,3.18L286,253.62a3.34,3.34,0,0,1-3.36.17L241.44,230a3.86,3.86,0,0,1-1.73-3v-.69a3.38,3.38,0,0,1,1.82-2.84l37-17.09a4.29,4.29,0,0,1,3.54.17l33.07,19.1A3.85,3.85,0,0,1,316.86,228.65Z" style="fill:#263238"></path><path d="M315.13,225.65l-33.07-19.1a4.29,4.29,0,0,0-3.54-.17l-37,17.09c-1,.46-1,1.28-.09,1.84l41.22,23.79a3.34,3.34,0,0,0,3.36-.17l29.22-21.11A1.2,1.2,0,0,0,315.13,225.65Z" style="fill:#37474f"></path></g><g id="freepik--Character--inject-106"><path d="M101.5,228.48v51.26a1.44,1.44,0,0,1-.65,1.13l-1.75,1a1.4,1.4,0,0,1-1.29,0l-1.75-1a1.44,1.44,0,0,1-.65-1.13V228.48a.74.74,0,0,1,.75-.75h4.59A.74.74,0,0,1,101.5,228.48Z" style="fill:#263238"></path><path d="M96.16,227.73h1.55a.75.75,0,0,1,.75.75v53c0,.42-.29.59-.64.38l-1.75-1a1.44,1.44,0,0,1-.65-1.13V228.48A.74.74,0,0,1,96.16,227.73Z" style="fill:#455a64"></path><path d="M130.92,245.4v51.26a1.44,1.44,0,0,1-.65,1.13l-1.75,1a1.48,1.48,0,0,1-1.3,0l-1.74-1a1.44,1.44,0,0,1-.65-1.13V245.4a.74.74,0,0,1,.75-.75h4.59A.75.75,0,0,1,130.92,245.4Z" style="fill:#263238"></path><path d="M125.58,244.65h1.54a.74.74,0,0,1,.75.75v53c0,.42-.29.58-.65.38l-1.74-1a1.44,1.44,0,0,1-.65-1.13V245.4A.74.74,0,0,1,125.58,244.65Z" style="fill:#455a64"></path><path d="M129,207.76a2.75,2.75,0,0,0,2.39,3.07l.34,0a2.75,2.75,0,0,0,2.73-2.41c1.58-12.66-.67-41-6.09-56.92-.56-1.64-2.14-2-3.64-1.13h0c-1.14.66-2,1.66-1.53,2.91C128.36,168.28,130.49,195.57,129,207.76Z" style="fill:#F07C1C"></path><path d="M97.08,215a1.73,1.73,0,0,1-1.66-2.29c4-12.33,24-23.3,36.86-23.3a1.75,1.75,0,1,1,0,3.5c-11.64,0-30,10.13-33.54,20.89A1.73,1.73,0,0,1,97.08,215Z" style="fill:#37474f"></path><path d="M95.2,199.06a1.81,1.81,0,0,1-.55-.09,1.75,1.75,0,0,1-1.11-2.21c4.21-12.81,24.73-23.18,37.56-21.85a1.75,1.75,0,0,1-.36,3.48c-11.35-1.16-30.18,8.24-33.88,19.47A1.75,1.75,0,0,1,95.2,199.06Z" style="fill:#37474f"></path><path d="M91,186.73a1.76,1.76,0,0,1-1.6-2.46c6-13.73,27.48-25,39.09-23.4a1.75,1.75,0,0,1-.48,3.47c-10.27-1.43-30,9.07-35.41,21.34A1.76,1.76,0,0,1,91,186.73Z" style="fill:#37474f"></path><path d="M86.85,171.69a2.75,2.75,0,0,0-1.13,3.48c6.33,14.77,9.66,32.81,9.66,52.57v2.65l.21.22a1.1,1.1,0,0,0,.83.34,3.35,3.35,0,0,0,1.15-.28,4.36,4.36,0,0,1,.56-.18,2.75,2.75,0,0,0,2.75-2.75c0-20.49-3.49-39.28-10.12-54.75a2.75,2.75,0,0,0-3.89-1.31Z" style="fill:#455a64"></path><path d="M95.41,229.75v.67A4.39,4.39,0,0,0,97,233.59l29.22,21.13a3.39,3.39,0,0,0,3.36.17l41.21-23.8a3.82,3.82,0,0,0,1.74-3v-.69a3.43,3.43,0,0,0-1.82-2.84l-37-17.08a4.32,4.32,0,0,0-3.55.16L97.14,226.75A3.81,3.81,0,0,0,95.41,229.75Z" style="fill:#263238"></path><path d="M97.14,226.75l33.06-19.11a4.32,4.32,0,0,1,3.55-.16l37,17.08c1,.47,1,1.29.08,1.84l-41.21,23.8a3.39,3.39,0,0,1-3.36-.17L97,228.92A1.19,1.19,0,0,1,97.14,226.75Z" style="fill:#37474f"></path><path d="M191.24,283.45c6.5,9.22,11.74,11.47,13.53,13.48s.59,5.81-4,6.56-9.46-.52-12.3-3.54-4.73-6.92-7.65-9.16-4.43-2.86-4.79-5.4,2.15-10,2.15-10Z" style="fill:#F07C1C"></path><path d="M188.44,269.64c-.75,3.24-1.54,6.07.54,10.08a37.51,37.51,0,0,0,2.26,3.73c3.79,5.47,6.88,9.75,7.43,10.5s-2.9,3-6.7,1.25-6.89-7.53-9.28-11c-1.07-1.57-2.11-3-2.95-4.09a7.62,7.62,0,0,1-1.52-5.13l.38-5.21Z" style="fill:#ffa8a7"></path><path d="M167.22,294.74c6.5,9.22,11.74,11.48,13.54,13.49s.58,5.8-4,6.55-9.46-.51-12.29-3.53-4.74-6.92-7.66-9.16-4.43-2.86-4.79-5.4,2.16-10,2.16-10Z" style="fill:#37474f"></path><path d="M164.42,280.94c-.75,3.24-1.54,6.07.55,10.07a33.61,33.61,0,0,0,2.25,3.73c3.79,5.48,6.88,9.76,7.43,10.51s-2.9,3-6.69,1.24-6.9-7.52-9.29-11c-1.06-1.57-2.11-3-2.94-4.09a7.58,7.58,0,0,1-1.53-5.14l.38-5.2Z" style="fill:#ffa8a7"></path><path d="M131.59,144.57h0a19.9,19.9,0,0,1-19.9-19.9v-.17a17.65,17.65,0,0,1,17.65-17.65h4.49a17.65,17.65,0,0,1,17.66,17.65v.17A19.9,19.9,0,0,1,131.59,144.57Z" style="fill:#37474f"></path><path d="M151.42,192.14c-1.31-1.06-2.71-2.93-4.06-6.83-.93-2.69-9.53-26.88-10.9-32.72,0,0-1.22-1.68,2-3.82,4.29-.49,8-.47,11,7.52s9.06,26.9,9.06,26.9" style="fill:#ffa8a7"></path><path d="M108.85,207.75c-2.18,3.95-4,11.47-1.92,17.49,1.17,3.33,16.8,20.53,27.81,19.09,19-2.47,36.6-27.7,36.6-27.7l-25.18-14.37Z" style="fill:#F07C1C"></path><g style="opacity:0.1"><path d="M108.85,207.75c-2.18,3.95-4,11.47-1.92,17.49,1.17,3.33,16.8,20.53,27.81,19.09,19-2.47,36.6-27.7,36.6-27.7l-25.18-14.37Z"></path></g><path d="M137.26,148.84c2.9-.23,6.34-.25,9.6,5.7,2.55,4.63,3.93,6.55,3.83,12.87-.07,4.56-2.87,10.05-3.5,13.69s-.95,19.73-1,21.16a26.34,26.34,0,0,1-19.26,8.86c-12.63.34-18.05-3.37-18.05-3.37l9.64-17.31L116,155.25l9.43-5.64Z" style="fill:#F07C1C"></path><g style="opacity:0.5"><path d="M137.26,148.84c2.9-.23,6.34-.25,9.6,5.7,2.55,4.63,3.93,6.55,3.83,12.87-.07,4.56-2.87,10.05-3.5,13.69s-.95,19.73-1,21.16a26.34,26.34,0,0,1-19.26,8.86c-12.63.34-18.05-3.37-18.05-3.37l9.64-17.31L116,155.25l9.43-5.64Z" style="fill:#fff"></path></g><path d="M142.47,114.89c2.1,1.25,7.18,6.53,6.93,17.62-.22,9.39-3.26,11.72-4.79,12.38s-4.48.27-7.35-.21v5.64s4,4.6,3.71,7.18-5.72,3.2-9.42.67a23.93,23.93,0,0,1-6.09-6.37V138.18s-1.94,2.58-5.1.48-3.29-7.31-1.45-9.18,5.81-1.27,6.55,1.31c0,0,3.9,1,10-2.36S142.07,118.54,142.47,114.89Z" style="fill:#ffa8a7"></path><path d="M138.91,130.15a1.18,1.18,0,1,1-1.24-1.17A1.2,1.2,0,0,1,138.91,130.15Z" style="fill:#37474f"></path><path d="M136.78,126.53l-2.46,1.52a1.51,1.51,0,0,1,.49-2A1.42,1.42,0,0,1,136.78,126.53Z" style="fill:#37474f"></path><path d="M139.22,138.11,142,139a1.42,1.42,0,0,1-1.79,1A1.52,1.52,0,0,1,139.22,138.11Z" style="fill:#f28f8f"></path><path d="M148,129.3a1.19,1.19,0,0,1-1.11,1.28,1.22,1.22,0,0,1-1.25-1.17,1.18,1.18,0,1,1,2.36-.11Z" style="fill:#37474f"></path><polygon points="142.47 128.62 142.66 135.73 146.4 134.57 142.47 128.62" style="fill:#f28f8f"></polygon><path d="M137.26,144.68c-2.39-.27-7.18-1.72-8.23-3.33a4.35,4.35,0,0,0,1.6,2.59c1.57,1.49,6.63,2.57,6.63,2.57Z" style="fill:#f28f8f"></path><path d="M141,114.08s2.08,7.23-.41,14c0,0,9.06.57,9.56-6.28,0,0-.44-5.64-4.45-9Z" style="fill:#37474f"></path><path d="M120,105.93c3.17,2.82.57,5.55-2.46,8.95s-5.34,6.17-8.51,3.34a8.26,8.26,0,0,1,11-12.29Z" style="fill:#37474f"></path><path d="M186.9,307.39v68.36a1.92,1.92,0,0,0,.87,1.5l2.33,1.34a1.89,1.89,0,0,0,1.73,0l2.33-1.34a1.92,1.92,0,0,0,.87-1.5V307.39a1,1,0,0,0-1-1H187.9A1,1,0,0,0,186.9,307.39Z" style="fill:#263238"></path><path d="M194,306.39H192a1,1,0,0,0-1,1v70.7c0,.55.39.78.86.5l2.33-1.34a1.92,1.92,0,0,0,.87-1.5V307.39A1,1,0,0,0,194,306.39Z" style="fill:#455a64"></path><path d="M292.52,246.41v68.36a1.94,1.94,0,0,0,.86,1.5l2.33,1.35a2,2,0,0,0,1.74,0l2.33-1.35a1.94,1.94,0,0,0,.86-1.5V246.41a1,1,0,0,0-1-1h-6.12A1,1,0,0,0,292.52,246.41Z" style="fill:#263238"></path><path d="M299.64,245.41h-2.06a1,1,0,0,0-1,1v70.71c0,.55.39.77.87.5l2.33-1.35a1.94,1.94,0,0,0,.86-1.5V246.41A1,1,0,0,0,299.64,245.41Z" style="fill:#455a64"></path><path d="M93.48,253.45v68.36a1.92,1.92,0,0,0,.86,1.5l2.33,1.35a2,2,0,0,0,1.74,0l2.33-1.35a1.9,1.9,0,0,0,.86-1.5V253.45a1,1,0,0,0-1-1H94.48A1,1,0,0,0,93.48,253.45Z" style="fill:#37474f"></path><path d="M100.6,252.45H98.54a1,1,0,0,0-1,1v70.71c0,.55.39.77.87.5l2.33-1.35a1.9,1.9,0,0,0,.86-1.5V253.45A1,1,0,0,0,100.6,252.45Z" style="fill:#263238"></path><path d="M189.24,312.42,91.15,255.79a3.81,3.81,0,0,1-1.73-3v-.69a3.84,3.84,0,0,1,1.73-3l110.27-63.66a3.86,3.86,0,0,1,3.47,0L303,242.07a3.81,3.81,0,0,1,1.73,3v.69a3.82,3.82,0,0,1-1.73,3L192.7,312.42A3.77,3.77,0,0,1,189.24,312.42Z" style="fill:#37474f"></path><path d="M191,191.47,91.15,249.1a3.84,3.84,0,0,0-1.73,3v.69a3.81,3.81,0,0,0,1.73,3l98.09,56.63a3.46,3.46,0,0,0,1.73.42Z" style="fill:#263238"></path><path d="M189.24,307.73,91.15,251.1c-1-.55-1-1.44,0-2l110.27-63.66a3.86,3.86,0,0,1,3.47,0L303,242.07a1.05,1.05,0,0,1,0,2L192.7,307.73A3.77,3.77,0,0,1,189.24,307.73Z" style="fill:#455a64"></path><path d="M143.61,233.12v1a2.91,2.91,0,0,0,1.43,2.49l27.34,15.73a2.88,2.88,0,0,0,2.86,0l50.15-29a2.86,2.86,0,0,0,1.44-2.48v-.7l-53,30.61Z" style="fill:#e6e6e6"></path><path d="M226.83,220.21l-29.74-17.16a1.67,1.67,0,0,0-1.7,0L143.8,232.83a.38.38,0,0,0,0,.66l30,17.33Z" style="fill:#fafafa"></path><polygon points="173.54 248.3 157.5 239.05 204.4 211.97 220.52 221.18 173.54 248.3" style="fill:#e6e6e6"></polygon><polygon points="165.66 222.57 165.95 222.74 173.81 227.28 187.79 219.2 188.08 219.04 179.93 214.33 165.66 222.57" style="fill:#e0e0e0"></polygon><path d="M158.48,183.19s7.73,6.39,16.64,13.46c4,3.19,8.48,6.4,12.16,6.8,2.92.31,8.11.52,9.22,1.54s4.32,6.34,5.36,8.06.35,5.75-3,6-4.77-2.14-6.17-3.63a17.42,17.42,0,0,0-2.53-2.25s-3.49.19-5.47-1-3.11-1.87-3.11-1.87c-6.94-3.89-24.49-13.62-30.14-18.2" style="fill:#ffa8a7"></path><polygon points="165.95 222.74 173.81 227.28 187.79 219.2 179.93 214.67 165.95 222.74" style="fill:#e6e6e6"></polygon><path d="M173.81,250.82v1.91a2.89,2.89,0,0,0,1.43-.38l50.15-29a2.86,2.86,0,0,0,1.44-2.48v-.7Z" style="fill:#e0e0e0"></path><path d="M174.62,251.24a3.4,3.4,0,0,0,2.93-.22l49.93-28.83a3.38,3.38,0,0,0,1.65-2.37l5.47-32.6a3.48,3.48,0,0,0-1-3l-51.89,30a2.54,2.54,0,0,0-1.22,1.76Z" style="fill:#ebebeb"></path><path d="M173.81,250.82l.34.2a5,5,0,0,0,.47.22L180.53,216a2.54,2.54,0,0,1,1.22-1.76l51.89-30a3.39,3.39,0,0,0-.7-.53l-52,30a2.54,2.54,0,0,0-1.22,1.76Z" style="fill:#f5f5f5"></path><path d="M202.74,221.15c.37-2.18,2.62-5.08,5-6.47s4.08-.75,3.71,1.43-2.62,5.08-5,6.47S202.38,223.34,202.74,221.15Z" style="fill:#e0e0e0"></path><polygon points="142.22 252.45 138.16 254.79 142.22 257.14 146.28 254.79 142.22 252.45" style="fill:#F07C1C"></polygon><path d="M123,259l14.52-8.38a2,2,0,0,1,1.73,0l10.45,6a1.92,1.92,0,0,1,.87,1.5v.34a1.89,1.89,0,0,1-.87,1.5l-14.51,8.39a2,2,0,0,1-1.74,0l-10.45-6a1.92,1.92,0,0,1-.87-1.5v-.35A1.92,1.92,0,0,1,123,259Z" style="fill:#F07C1C"></path><path d="M133.42,266,123,260c-.48-.27-.48-.72,0-1l14.52-8.38a2,2,0,0,1,1.73,0l10.45,6a.53.53,0,0,1,0,1L135.16,266A1.91,1.91,0,0,1,133.42,266Z" style="fill:#F07C1C"></path><g style="opacity:0.30000000000000004"><path d="M133.42,266,123,260c-.48-.27-.48-.72,0-1l14.52-8.38a2,2,0,0,1,1.73,0l10.45,6a.53.53,0,0,1,0,1L135.16,266A1.91,1.91,0,0,1,133.42,266Z" style="fill:#fff"></path></g><path d="M137.3,252.29c-.58.34-.58.88,0,1.21a2.29,2.29,0,0,0,2.1,0c.58-.33.58-.87,0-1.21A2.35,2.35,0,0,0,137.3,252.29Z" style="fill:#F07C1C"></path><path d="M133.24,254.64c-.58.33-.58.87,0,1.21a2.35,2.35,0,0,0,2.1,0c.58-.34.58-.88,0-1.21A2.29,2.29,0,0,0,133.24,254.64Z" style="fill:#F07C1C"></path><g style="opacity:0.2"><path d="M137.3,252.29c-.58.34-.58.88,0,1.21a2.29,2.29,0,0,0,2.1,0c.58-.33.58-.87,0-1.21A2.35,2.35,0,0,0,137.3,252.29Z"></path></g><g style="opacity:0.2"><path d="M133.24,254.64c-.58.33-.58.87,0,1.21a2.35,2.35,0,0,0,2.1,0c.58-.34.58-.88,0-1.21A2.29,2.29,0,0,0,133.24,254.64Z"></path></g><path d="M123.48,263.88a.51.51,0,0,1-.44-.25.51.51,0,0,1,.19-.68l1.57-.91a.51.51,0,0,1,.69.18.49.49,0,0,1-.19.68l-1.57.91A.47.47,0,0,1,123.48,263.88Z" style="fill:#F07C1C"></path><path d="M123.48,264.38a1,1,0,0,1-1-1V247.76a1,1,0,0,1,2,0v15.62A1,1,0,0,1,123.48,264.38Z" style="fill:#F07C1C"></path><g style="opacity:0.2"><path d="M123.48,263.88a.51.51,0,0,1-.44-.25.51.51,0,0,1,.19-.68l1.57-.91a.51.51,0,0,1,.69.18.49.49,0,0,1-.19.68l-1.57.91A.47.47,0,0,1,123.48,263.88Z"></path><path d="M123.48,264.38a1,1,0,0,1-1-1V247.76a1,1,0,0,1,2,0v15.62A1,1,0,0,1,123.48,264.38Z"></path></g><path d="M150.54,262.11a2,2,0,0,1-1-.26l-2.34-1.35a.49.49,0,0,1-.18-.68.51.51,0,0,1,.68-.19l2.34,1.35a.91.91,0,0,0,.93,0l19.38-11.09a.5.5,0,0,1,.5.87L151.5,261.85A1.92,1.92,0,0,1,150.54,262.11Z" style="fill:#f0f0f0"></path><path d="M135.42,245.12a2.76,2.76,0,1,1-2.76-2.75A2.76,2.76,0,0,1,135.42,245.12Z" style="fill:#F07C1C"></path><path d="M132.66,237.86a7.26,7.26,0,0,0-6.4,3.84,1.08,1.08,0,0,0,.29,1.36h0a1.07,1.07,0,0,0,1.6-.33,5.08,5.08,0,0,1,9,0,1.07,1.07,0,0,0,1.61.33h0a1.07,1.07,0,0,0,.29-1.36A7.25,7.25,0,0,0,132.66,237.86Z" style="fill:#F07C1C"></path><path d="M132.66,233.46a11.63,11.63,0,0,0-9.82,5.4,1.09,1.09,0,0,0,.22,1.45h0a1.08,1.08,0,0,0,1.58-.28,9.49,9.49,0,0,1,16,0,1.07,1.07,0,0,0,1.57.28h0a1.09,1.09,0,0,0,.23-1.45A11.63,11.63,0,0,0,132.66,233.46Z" style="fill:#F07C1C"></path><path d="M150.35,227.89C143.41,224,128.76,213.55,123.1,209c-1.3-1.05-3-1.68-3.89-5.76-.6-2.78-7.62-26.37-8.89-34.84-1.24-8.28,2.52-11,5.71-13.11,4.57,3.61,4.74,8.08,6.8,15.65,2.27,8.31,7.34,29.12,7.34,29.12s6.67,6.62,14.26,14c3.68,3.59,8,6.55,11.64,6.94,2.92.32,8.11.52,9.22,1.55s4.32,6.33,5.36,8,.35,5.76-3,6-4.77-2.15-6.17-3.63a17.18,17.18,0,0,0-2.53-2.26s-3.49.2-5.47-1S150.35,227.89,150.35,227.89Z" style="fill:#ffa8a7"></path><path d="M202.32,183.11a17.44,17.44,0,0,0-10.6,0c-2.87,1.1-2.87,2.87,0,4a17.44,17.44,0,0,0,10.6,0C205.3,186,205.3,184.21,202.32,183.11Z" style="fill:#e0e0e0"></path><path d="M204.79,178.29l-15.46,0,1.17,18.22h0c.07.66.69,1.31,1.87,1.82a13.69,13.69,0,0,0,9.28,0c1.22-.51,1.86-1.16,1.93-1.82h0Z" style="fill:#F07C1C"></path><path d="M189.33,178.31l.24,3.7a7,7,0,0,0,1.29.69,18.72,18.72,0,0,0,12.32,0l.41-.19a8.48,8.48,0,0,0,1-.54l.23-3.68Z" style="fill:#F07C1C"></path><path d="M189.33,178.31l.24,3.7a7,7,0,0,0,1.29.69,18.72,18.72,0,0,0,12.32,0l.41-.19a8.48,8.48,0,0,0,1-.54l.23-3.68Z" style="opacity:0.1"></path><path d="M205.77,178.83V176H204c-.24-.12-.51-.24-.79-.36a18.85,18.85,0,0,0-12.32,0c-.28.12-.53.24-.76.36h-1.75v2.79h0c0,.91.84,1.82,2.51,2.51a18.85,18.85,0,0,0,12.32,0C204.9,180.64,205.77,179.74,205.77,178.83Z" style="fill:#F07C1C"></path><g style="opacity:0.30000000000000004"><path d="M205.77,178.83V176H204c-.24-.12-.51-.24-.79-.36a18.85,18.85,0,0,0-12.32,0c-.28.12-.53.24-.76.36h-1.75v2.79h0c0,.91.84,1.82,2.51,2.51a18.85,18.85,0,0,0,12.32,0C204.9,180.64,205.77,179.74,205.77,178.83Z" style="fill:#fff"></path></g><path d="M203.18,173.54a18.72,18.72,0,0,0-12.32,0c-3.34,1.38-3.34,3.63,0,5a18.72,18.72,0,0,0,12.32,0C206.63,177.17,206.63,174.92,203.18,173.54Z" style="fill:#F07C1C"></path><path d="M203.18,173.54a18.72,18.72,0,0,0-12.32,0c-3.34,1.38-3.34,3.63,0,5a18.72,18.72,0,0,0,12.32,0C206.63,177.17,206.63,174.92,203.18,173.54Z" style="fill:#fff;opacity:0.1"></path><path d="M201.66,173.87a15.56,15.56,0,0,0-9.26,0c-2.52.95-2.52,2.48,0,3.43a15.4,15.4,0,0,0,9.26,0C204.26,176.35,204.26,174.82,201.66,173.87Z" style="fill:#F07C1C"></path><path d="M201.66,173.87a15.56,15.56,0,0,0-9.26,0c-2.52.95-2.52,2.48,0,3.43a15.4,15.4,0,0,0,9.26,0C204.26,176.35,204.26,174.82,201.66,173.87Z" style="fill:#fff;opacity:0.30000000000000004"></path><polygon points="203.55 175.26 202.85 172.72 191.27 172.72 190.57 175.26 203.55 175.26" style="fill:#F07C1C"></polygon><polygon points="203.55 175.26 202.85 172.72 191.27 172.72 190.57 175.26 203.55 175.26" style="fill:#fff;opacity:0.30000000000000004"></polygon><path d="M201.15,171.42a13.79,13.79,0,0,0-8.24,0c-2.23.84-2.23,2.2,0,3.05a13.79,13.79,0,0,0,8.24,0C203.46,173.62,203.46,172.26,201.15,171.42Z" style="fill:#F07C1C"></path><path d="M202.08,172.94s-.06.14-.25.29a3.52,3.52,0,0,1-1,.48,12,12,0,0,1-3.88.59,11.39,11.39,0,0,1-3.81-.58,3.21,3.21,0,0,1-.91-.49c-.19-.15-.24-.26-.24-.29s.2-.41,1.15-.77a11.39,11.39,0,0,1,3.81-.58,12,12,0,0,1,3.88.58C201.84,172.52,202.08,172.87,202.08,172.94Z" style="fill:#F07C1C;opacity:0.1"></path><path d="M202.08,172.94s-.06.14-.25.29a3.52,3.52,0,0,1-1,.48,12,12,0,0,1-3.88.59,11.39,11.39,0,0,1-3.81-.58,3.21,3.21,0,0,1-.91-.49c-.19-.15-.24-.26-.24-.29s.2-.41,1.15-.77a11.39,11.39,0,0,1,3.81-.58,12,12,0,0,1,3.88.58C201.84,172.52,202.08,172.87,202.08,172.94Z" style="opacity:0.1"></path><path d="M201.83,173.23a3.52,3.52,0,0,1-1,.48,12,12,0,0,1-3.88.59,11.39,11.39,0,0,1-3.81-.58,3.21,3.21,0,0,1-.91-.49,3.25,3.25,0,0,1,.91-.48,11.39,11.39,0,0,1,3.81-.58,12,12,0,0,1,3.88.58A3.52,3.52,0,0,1,201.83,173.23Z" style="fill:#F07C1C"></path><path d="M199.51,173.28a1.19,1.19,0,0,1,.91-.17c.17.1,0,.33-.3.52a1.18,1.18,0,0,1-.92.18C199,173.71,199.17,173.48,199.51,173.28Z" style="fill:#F07C1C"></path><path d="M199.51,173.28a1.19,1.19,0,0,1,.91-.17c.17.1,0,.33-.3.52a1.18,1.18,0,0,1-.92.18C199,173.71,199.17,173.48,199.51,173.28Z" style="opacity:0.1"></path><path d="M190,191.7c0,.67.68,1.35,2,1.87a16.53,16.53,0,0,0,10,0c1.4-.52,2.1-1.19,2.1-1.87l.44-6.6c0,.71-.75,1.43-2.24,2a17.44,17.44,0,0,1-10.6,0c-1.44-.55-2.16-1.27-2.16-2Z" style="fill:#F07C1C"></path><path d="M190,191.7c0,.67.68,1.35,2,1.87a16.53,16.53,0,0,0,10,0c1.4-.52,2.1-1.19,2.1-1.87l.44-6.6c0,.71-.75,1.43-2.24,2a17.44,17.44,0,0,1-10.6,0c-1.44-.55-2.16-1.27-2.16-2Z" style="fill:#fff;opacity:0.4"></path><path d="M196.12,192.09a10,10,0,0,1-.59-1.12,3.39,3.39,0,0,0-1.73-1.53.24.24,0,0,0-.27.1,2.59,2.59,0,0,0,3.23,3.26s.05-.1,0-.12A2.3,2.3,0,0,1,196.12,192.09Z" style="fill:#F07C1C"></path><path d="M194.22,189.24a3.44,3.44,0,0,1,1.08.67,3.2,3.2,0,0,1,.79,1.07,3.23,3.23,0,0,0,1,1.32.21.21,0,0,0,.3-.05,2.27,2.27,0,0,0-.53-2.78,2.34,2.34,0,0,0-2.66-.61A.21.21,0,0,0,194.22,189.24Z" style="fill:#F07C1C"></path></g></svg>