<svg xmlns="http://www.w3.org/2000/svg" viewBox="0 0 500 500"><g id="freepik--Floor--inject-175"><path d="M400.06,436.36c-82.88,47.85-217.23,47.85-300.11,0-55.84-32.23-74.05-78-54.64-119,.81-1.73,1.7-3.45,2.65-5.15a99.68,99.68,0,0,1,9.11-13.57C67.3,285.76,81.59,273.7,100,263.1c82.88-47.85,217.23-47.85,300.11,0,27.43,15.83,45.78,34.93,55.05,55.14a78.56,78.56,0,0,1,5,14.38c.49,2,.89,4,1.2,6C466.82,373.56,446.39,409.61,400.06,436.36Z" style="fill:#f5f5f5"></path><path d="M461.33,338.61,271.73,448.07,45.31,317.35c.81-1.73,1.7-3.45,2.65-5.15a99.68,99.68,0,0,1,9.11-13.57C67.3,285.76,81.59,273.7,100,263.1c82.88-47.85,217.23-47.85,300.11,0,27.43,15.83,45.78,34.93,55.05,55.14a78.56,78.56,0,0,1,5,14.38C460.62,334.61,461,336.6,461.33,338.61Z" style="fill:#F07C1C"></path><path d="M461.33,338.61,271.73,448.07,45.31,317.35c.81-1.73,1.7-3.45,2.65-5.15a99.68,99.68,0,0,1,9.11-13.57C67.3,285.76,81.59,273.7,100,263.1c82.88-47.85,217.23-47.85,300.11,0,27.43,15.83,45.78,34.93,55.05,55.14a78.56,78.56,0,0,1,5,14.38C460.62,334.61,461,336.6,461.33,338.61Z" style="opacity:0.4"></path><path d="M460.13,332.62,271.73,441.39,48,312.2a99.68,99.68,0,0,1,9.11-13.57C67.3,285.76,81.59,273.7,100,263.1c82.88-47.85,217.23-47.85,300.11,0,27.43,15.83,45.78,34.93,55.05,55.14A78.56,78.56,0,0,1,460.13,332.62Z" style="fill:#F07C1C"></path><path d="M455.11,318.24l-182,105.1-216-124.71C67.3,285.76,81.59,273.7,100,263.1c82.88-47.85,217.23-47.85,300.11,0C427.49,278.93,445.84,298,455.11,318.24Z" style="fill:#F07C1C"></path><path d="M455.11,318.24l-182,105.1-216-124.71C67.3,285.76,81.59,273.7,100,263.1c82.88-47.85,217.23-47.85,300.11,0C427.49,278.93,445.84,298,455.11,318.24Z" style="fill:#F07C1C"></path><path d="M455.11,318.24l-182,105.1-216-124.71C67.3,285.76,81.59,273.7,100,263.1c82.88-47.85,217.23-47.85,300.11,0C427.49,278.93,445.84,298,455.11,318.24Z" style="fill:#fff;opacity:0.4"></path></g><g id="freepik--Shadows--inject-175"><path d="M293.3,380.53c-19.92,11.5-52.2,11.5-72.12,0-13.42-7.75-17.79-18.74-13.13-28.6.2-.42.41-.83.64-1.24a23.84,23.84,0,0,1,2.19-3.26,36.1,36.1,0,0,1,10.3-8.54c19.92-11.49,52.2-11.49,72.12,0,6.59,3.81,11,8.4,13.23,13.25a19.2,19.2,0,0,1,1.2,3.46A14.68,14.68,0,0,1,308,357C309.34,365.44,304.43,374.1,293.3,380.53Z" style="opacity:0.2"></path><path d="M388.33,339.51c-11.52,6.65-30.19,6.65-41.7,0C338.87,335,336.34,328.67,339,323c.12-.24.24-.48.37-.72a14.45,14.45,0,0,1,1.27-1.88,20.74,20.74,0,0,1,6-4.94c11.51-6.65,30.18-6.65,41.7,0,3.81,2.2,6.36,4.86,7.65,7.66a11.9,11.9,0,0,1,.7,2c.06.28.12.56.16.83C397.6,330.78,394.77,335.79,388.33,339.51Z" style="opacity:0.2"></path><path d="M174.5,337.18,118.83,305a3.78,3.78,0,0,1,0-6.55l22.22-12.83a11.76,11.76,0,0,1,11.76,0l55.67,32.14a3.78,3.78,0,0,1,0,6.55l-22.22,12.83A11.76,11.76,0,0,1,174.5,337.18Z" style="opacity:0.2"></path></g><g id="freepik--Plant--inject-175"><path d="M396.73,292.88l8.76,5.09s-4.42-14.11-2-28.31a27.19,27.19,0,0,1,3.57-9.45c.68-1.43,6-10.29,1.32-14.37s-15.57,4-15.08,25.91A84.72,84.72,0,0,0,396.73,292.88Z" style="fill:#F07C1C"></path><path d="M396.73,292.88l8.76,5.09s-4.42-14.11-2-28.31a27.19,27.19,0,0,1,3.57-9.45c.68-1.43,6-10.29,1.32-14.37s-15.57,4-15.08,25.91A84.72,84.72,0,0,0,396.73,292.88Z" style="opacity:0.30000000000000004"></path><path d="M400.8,295.66a.41.41,0,0,1-.38-.27c0-.09-3.35-9.29-3.18-24.05s8-22.77,8.06-22.85a.41.41,0,1,1,.58.58c-.08.08-7.65,7.78-7.82,22.28s3.09,23.67,3.13,23.76a.42.42,0,0,1-.25.52A.32.32,0,0,1,400.8,295.66Z" style="fill:#fff"></path><path d="M403.52,296.86,418,305.37s6.63-1,6.12-7.21-3.19-7.71.16-10.45,4.22-2.93,4.06-5.61-2-3.86-2.82-4.93-3.22-3.3-1.55-6.54,3.93-6.37.57-7.85c-2-.89-5.37.22-7.6,2.59s-4.08,4.08-6.2,4.63-6.52.59-6.38,4.24,1.1,4.9.22,6.52C402.91,283.81,395.79,285.45,403.52,296.86Z" style="fill:#F07C1C"></path><path d="M409.42,300.74a.42.42,0,0,1-.41-.38c0-.22-1.59-21.81,13.41-36a.41.41,0,0,1,.58,0,.42.42,0,0,1,0,.58c-14.71,13.9-13.17,35.11-13.15,35.32a.41.41,0,0,1-.38.44Z" style="fill:#fff"></path><path d="M412,282.24a.41.41,0,0,1-.41-.38,12.29,12.29,0,0,0-4.39-8.6.41.41,0,0,1,.48-.66,12.89,12.89,0,0,1,4.73,9.2.41.41,0,0,1-.38.44Z" style="fill:#fff"></path><path d="M410.94,285.92a.4.4,0,0,1-.3-.68c.16-.18,3.93-4.27,12.67-3.06a.41.41,0,0,1-.11.81c-8.28-1.14-11.92,2.76-11.95,2.8A.4.4,0,0,1,410.94,285.92Z" style="fill:#fff"></path></g><g id="freepik--Suitcase--inject-175"><path d="M182.68,243.61l-28.57-16.49V176c0-2.69.95-4.77,2.59-5.72a4.84,4.84,0,0,1,5,.31L176.21,179c3.63,2.09,6.47,7.48,6.47,12.26Zm-26.43-17.72,24.29,14V191.29c0-3.95-2.47-8.72-5.4-10.41l-14.56-8.41a2.87,2.87,0,0,0-2.81-.31c-1,.55-1.52,2-1.52,3.87Z" style="fill:#37474f"></path><path d="M176,177.09l-12.51-7.22a2.62,2.62,0,0,0-3.93,2.27,2.65,2.65,0,0,0,1.31,2.27l12.51,7.22a2.62,2.62,0,0,0,3.93-2.27A2.65,2.65,0,0,0,176,177.09Z" style="fill:#F07C1C"></path><path d="M185.37,315.32a12.87,12.87,0,0,1-5.81,10.07c-3.21,1.85-5.82.35-5.82-3.36A12.85,12.85,0,0,1,179.56,312C182.76,310.12,185.37,311.62,185.37,315.32Z" style="fill:#263238"></path><polygon points="175.25 325.66 178.4 327.47 178.4 319.89 175.25 325.66" style="fill:#263238"></polygon><path d="M188,316.85a12.86,12.86,0,0,1-5.81,10.06c-3.21,1.86-5.81.35-5.81-3.35a12.86,12.86,0,0,1,5.81-10.07C185.4,311.64,188,313.14,188,316.85Z" style="fill:#455a64"></path><path d="M194,232.07v76.68c0,2.15-.75,3.63-1.93,4.2L168.4,326.74V242l24.76-14.14A11.77,11.77,0,0,1,194,232.07Z" style="fill:#F07C1C"></path><path d="M194,232.07v76.68c0,2.15-.75,3.63-1.93,4.2L168.4,326.74V242l24.76-14.14A11.77,11.77,0,0,1,194,232.07Z" style="opacity:0.4"></path><path d="M193.16,227.81,168.4,242l-23.17-14.47-22.09-13.82,23.65-13.75.12-.07a3.2,3.2,0,0,1,3.41.21l38.61,22.3A10.9,10.9,0,0,1,193.16,227.81Z" style="fill:#F07C1C"></path><path d="M193.16,227.81l-11.43,6.53-1.87,1.07L168.4,242l-23.17-14.47-22.09-13.82,11.66-6.78,2.13-1.24,9.86-5.73.12-.07a3.2,3.2,0,0,1,3.41.21l38.61,22.3A10.9,10.9,0,0,1,193.16,227.81Z" style="opacity:0.2"></path><path d="M165.1,326.46l-38.61-22.29c-2.81-1.63-5.09-6-5.09-9.73V217.76c0-3.75,2.28-5.47,5.09-3.85l38.61,22.3c2.81,1.62,5.09,6,5.09,9.72v76.68C170.19,326.36,167.91,328.08,165.1,326.46Z" style="fill:#F07C1C"></path><path d="M183.06,318.21V240.06a13.86,13.86,0,0,0-1.33-5.72,12,12,0,0,0-4.53-5.4l-40.27-23.3-2.13,1.24,41.33,23.91a10.17,10.17,0,0,1,3.73,4.62,11.74,11.74,0,0,1,1.07,4.65v79.39Z" style="fill:#37474f"></path><path d="M136,303.78h0a4.88,4.88,0,0,1-2-3.89V228.31c0-1.5.91-2.19,2-1.54h0a4.86,4.86,0,0,1,2,3.89v71.58C138,303.74,137.09,304.43,136,303.78Z" style="opacity:0.2"></path><path d="M145.8,308.2h0a4.86,4.86,0,0,1-2-3.89V232.74c0-1.5.91-2.19,2-1.54h0a4.88,4.88,0,0,1,2,3.89v71.57C147.83,308.16,146.92,308.85,145.8,308.2Z" style="opacity:0.2"></path><path d="M155.63,313.6h0a4.88,4.88,0,0,1-2-3.89V238.13c0-1.49.91-2.18,2-1.53h0a4.86,4.86,0,0,1,2,3.88v71.58C157.67,313.56,156.76,314.25,155.63,313.6Z" style="opacity:0.2"></path></g><g id="freepik--Character--inject-175"><path d="M275.31,345.63s-1.25.31-.9,3.16.79,6.5.79,6.5.41,5.91.38,9.77-.25,9,.53,11.79,2.42,5.69,4.93,5.59,8.43-3.78,7.85-13.55c-.15-2.66-2.9-11.65-2.9-11.65s.44-8.74.38-10.89a1.79,1.79,0,0,0-1-1.68Z" style="fill:#37474f"></path><path d="M273.9,337.7l1.54,8.71s.75,2.63,5.45,2.63a4.48,4.48,0,0,0,4.5-3.69l.28-8.34Z" style="fill:#945959"></path><path d="M224.26,173.3l-4.33,8-20.82,7.28s-3.55-2.39-3.85-2.1-1.61,3,3.28,5.32l3.63,6.58s25.2-5,27.38-6.58,5.76-9,5.76-9S232.83,173.1,224.26,173.3Z" style="fill:#945959"></path><polygon points="240.45 356.48 237.02 354.26 237.02 349.82 240.32 350.12 240.45 356.48" style="fill:#263238"></polygon><path d="M245.13,345.18l-.13,8.55-4.55,2.75-.52-7.29S243.49,345.12,245.13,345.18Z" style="fill:#263238"></path><path d="M232.69,335.15s-.24.19-3.13,7.94-5.9,10.62-7.65,12.07-5.72,4.14-5.72,6.21,3.35,3.7,8.25,3.28,11.8-1.62,13.57-7.5c.58-1.9.69-5.37,2.91-7.76s4.21-4.21,4.21-4.21.23-7.84-2-9.94Z" style="fill:#37474f"></path><path d="M232.47,325.62l.24,10.32s.37,3.14,5.21,2.51,5.16-2.86,5.16-2.86l2.19-10Z" style="fill:#945959"></path><path d="M251.88,275.51a18.44,18.44,0,0,0-.41,3.85,17.94,17.94,0,0,0,.36,3.57,28.16,28.16,0,0,1,0,11.42l-6.53,31.27a13.73,13.73,0,0,1-12.8,0s-.4-30.84-.4-53.79c0-43.08,4.94-65.73,4.94-65.73h22.7v33.45l-7.54,34.64Z" style="fill:#945959"></path><path d="M262.69,230l-7.88,42.82a11,11,0,0,1-2.64,1.36c-8.25,3-20.1-2.36-20.1-2.36,0-43.08,4.94-65.73,4.94-65.73L261.5,206Z" style="fill:#37474f"></path><path d="M262.39,231.66l-2.68-16.8H241.84s.95,10.33,8.71,15.51l5.87,33.69Z" style="fill:#263238"></path><path d="M287.31,289.44,285.67,337a9.82,9.82,0,0,1-11.77.69l-11.1-62.37,0-.2L253,227.44c-8.44-2.28-13-12.14-14.87-17.63A37.22,37.22,0,0,1,237,206.1l42.86-3.88A28.42,28.42,0,0,1,281.1,206,94.5,94.5,0,0,1,284,227c0,6.58-.15,33.16-.21,43.73v.08a21.55,21.55,0,0,0,1.66,8.31A24.34,24.34,0,0,1,287.31,289.44Z" style="fill:#945959"></path><path d="M284,227c0,6.58-.15,33.16-.21,43.73a23.86,23.86,0,0,1-21,4.56,21.29,21.29,0,0,1-2.69-.82L253,227.44c-11.81-2.57-15-17.62-15-17.62h.15l43-3.77A94.5,94.5,0,0,1,284,227Z" style="fill:#37474f"></path><path d="M248.2,105.57s4.42-7.55,13.55-6.3,19.88,11.93,18.59,19.2Z" style="fill:#F07C1C"></path><path d="M248.2,105.57s4.42-7.55,13.55-6.3,19.88,11.93,18.59,19.2Z" style="fill:#fff;opacity:0.4"></path><ellipse cx="257.48" cy="126.4" rx="20.32" ry="32.61" transform="translate(41.16 314.77) rotate(-67.2)" style="fill:#F07C1C"></ellipse><path d="M276.14,154c-11.63,4.25-30.51,5.75-30.51-8,0-.48,0-.93,0-1.39,0-5.23-.2-8.86-.41-11.32,0,0,0-.07,0-.11a27.65,27.65,0,0,0-.61-4.47l-.24-2.82-.21-2.35-.12-1.52-.56-6.51-.28-3.3a8.6,8.6,0,0,1,4.23-1.31,15.84,15.84,0,0,1,2.12-.06c2.94.11,7,1,12.22,3.59A42.31,42.31,0,0,1,269,119c.75.58,1.43,1.16,2.05,1.74,5.22,4.78,6.53,9,6.53,9v8.44c0,2.44,3.57,6.74,5.62,2.27C283.15,140.43,287.78,149.79,276.14,154Z" style="fill:#263238"></path><path d="M247.9,148.73s-5.46-.82-10.52,5-13.12,19.6-13.12,19.6,8.1,2.76,11.05,9.5l11-19.22Z" style="fill:#F07C1C"></path><path d="M247.9,148.73s-5.46-.82-10.52,5-13.12,19.6-13.12,19.6,8.1,2.76,11.05,9.5l11-19.22Z" style="opacity:0.6000000000000001"></path><path d="M252.93,148.73l13,.47s9.8,1.57,12,3.16l.76,25.65-2.78,14.7s4.74,9.07,6.26,18.18c0,0-8.07,6-26.87,6-12.1,0-19.23-6-19.23-6s4.43-22.88,3.7-27.09c0,0-5.62-3.49-5.58-12.28s13.68-22.79,13.68-22.79Z" style="fill:#F07C1C"></path><path d="M252.93,148.73l13,.47s9.8,1.57,12,3.16l.76,25.65-2.78,14.7s4.74,9.07,6.26,18.18c0,0-8.07,6-26.87,6-12.1,0-19.23-6-19.23-6s4.43-22.88,3.7-27.09c0,0-5.62-3.49-5.58-12.28s13.68-22.79,13.68-22.79Z" style="opacity:0.4"></path><path d="M258.45,121.15a10.25,10.25,0,1,1-10.26-10.23A10.26,10.26,0,0,1,258.45,121.15Z" style="fill:#263238"></path><polygon points="265.97 149.99 252.95 149.89 252.93 131.92 265.95 131.91 265.97 149.99" style="fill:#945959"></polygon><path d="M253,147.68a21,21,0,0,0,11.94-11.39v-4.38h-12Z" style="fill:#703838"></path><path d="M269.72,126.51a23.72,23.72,0,0,1-.25,2.47,19.45,19.45,0,0,1-3.48,8.69.05.05,0,0,1,0,0,18.11,18.11,0,0,1-5,4.62h0a21.51,21.51,0,0,1-8,3h0a18.83,18.83,0,0,1-2.29.25,9.33,9.33,0,0,1-5-.93c-3.35-1.83-4.62-6.25-5.12-13-.59-8.07.92-13,3-16.12a12.32,12.32,0,0,1,2.54-2.8v0a10.45,10.45,0,0,1,3.52-1.85c2.94.11,7,1,12.22,3.59A42.31,42.31,0,0,1,269,119a16.32,16.32,0,0,1,.78,4.43A29.26,29.26,0,0,1,269.72,126.51Z" style="fill:#945959"></path><path d="M270.94,126.64c0,.26-.09.52-.14.78L269.47,129,267,131.9a2.53,2.53,0,0,1-1,0h-.11s0,0,0,0c-.93-.21-2.07-1-2.07-3.8,0,0-14.51-1-17.72-15.36v0a4.57,4.57,0,0,1,1.4-1.79,15.84,15.84,0,0,1,2.12-.06c2.94.11,7,1,12.22,3.59A42.31,42.31,0,0,1,269,119c.75.58,1.43,1.16,2.05,1.74A17.41,17.41,0,0,1,270.94,126.64Z" style="fill:#263238"></path><polygon points="249.22 127.56 249.23 134.56 245.13 133.3 249.22 127.56" style="fill:#703838"></polygon><path d="M255.39,128.3a1.43,1.43,0,1,1-1.43-1.43A1.43,1.43,0,0,1,255.39,128.3Z" style="fill:#263238"></path><path d="M246,127.31a1.43,1.43,0,1,1-1.43-1.42A1.43,1.43,0,0,1,246,127.31Z" style="fill:#263238"></path><path d="M242.84,124.35l2.79-1.66s-1.07-1.11-2.14-.44A2,2,0,0,0,242.84,124.35Z" style="fill:#263238"></path><path d="M249.59,136.87a7.26,7.26,0,0,0,4.59-1.23s.31,2.42-1.71,2.88A2.62,2.62,0,0,1,249.59,136.87Z" style="fill:#703838"></path><path d="M265.83,132.44a8,8,0,0,1,.64-3.45,3.65,3.65,0,0,1,3.16-2.49c3.66-.1,4.16,3.42,4.11,4.67-.13,3.29-2.79,6.85-7.75,7Z" style="fill:#945959"></path><path d="M253,149.89s-3.88,8.21,2.76,8.56S266,150,266,150Z" style="fill:#945959"></path><polygon points="188.27 158.09 208.93 214.69 229.11 230.1 252.19 219.73 273.51 238.72 252.74 181.6 232.59 164.61 207.51 172.51 188.27 158.09" style="fill:#ebebeb"></polygon><polygon points="232.59 164.61 252.19 219.73 229.11 230.1 207.51 172.51 232.59 164.61" style="fill:#e0e0e0"></polygon><path d="M196.81,194.5a4.15,4.15,0,0,1,.36-3c1-2,3-5.46,4.09-4.92,1.46.75,6.35,9.48,3.82,14.54C202.85,205.59,198.05,199.06,196.81,194.5Z" style="fill:#945959"></path><path d="M279.33,187.61l3.36,6.79L270.1,206.66a7.32,7.32,0,0,0-4.24-.56,20.6,20.6,0,0,1-6.15,0c-1.23-.21-3.18,1.15-.45,2.71a9.64,9.64,0,0,0,4.28,1.55,37.58,37.58,0,0,1-8.64,1.95c-3.71.2-6,1.17-3.13,4.47s7.06,6.55,10.92,5.61,9.35-3.37,11.86-5.51c0,0,23.65-13.61,22.43-20.13s-3.74-15.53-3.74-15.53Z" style="fill:#945959"></path><path d="M276.71,151.72s-7.43,5.83-5.1,14.88,7.72,21,7.72,21,11.25,1.24,13.91-6.39l-7.38-21a13.47,13.47,0,0,0-8-8.15Z" style="fill:#F07C1C"></path><path d="M276.71,151.72s-7.43,5.83-5.1,14.88,7.72,21,7.72,21,11.25,1.24,13.91-6.39l-7.38-21a13.47,13.47,0,0,0-8-8.15Z" style="opacity:0.6000000000000001"></path><polygon points="263.19 210.33 261.15 204.72 256.83 204.53 255.57 208.81 258.67 210.36 263.19 210.33" style="fill:#ebebeb"></polygon></g><g id="freepik--speech-bubble--inject-175"><path d="M196.8,122.8c5.24-8.59,8.54-18.47,8.54-27.34A24.72,24.72,0,0,0,203,84.38l1.8-1.8-7-4h0C193,75.66,186.37,76,179,80.25c-14.54,8.4-26.33,28.82-26.33,45.61,0,8.58,3.08,14.54,8,17.21h0l7.2,4.14v-2.58a24.31,24.31,0,0,0,11.1-3.58,45.9,45.9,0,0,0,10.87-9c5.15,4.41,14.48-5.65,14.48-5.65C199,129.5,197.27,126.43,196.8,122.8Z" style="fill:#F07C1C"></path><path d="M196.8,122.8c5.24-8.59,8.54-18.47,8.54-27.34A24.72,24.72,0,0,0,203,84.38l1.8-1.8-7-4h0C193,75.66,186.37,76,179,80.25c-14.54,8.4-26.33,28.82-26.33,45.61,0,8.58,3.08,14.54,8,17.21h0l7.2,4.14v-2.58a24.31,24.31,0,0,0,11.1-3.58,45.9,45.9,0,0,0,10.87-9c5.15,4.41,14.48-5.65,14.48-5.65C199,129.5,197.27,126.43,196.8,122.8Z" style="opacity:0.2"></path><g style="opacity:0.30000000000000004"><path d="M197,115.67s-2.87,16.65,7.33,10.76c0,0-11.95,12.9-16.28,3.11Z"></path></g><ellipse cx="186.01" cy="114.71" rx="37.24" ry="21.5" transform="translate(-6.33 218.44) rotate(-60)" style="fill:#F07C1C"></ellipse><path d="M204,119.72s-2.86,16.64,7.34,10.76c0,0-12,12.89-16.28,3.11Z" style="fill:#F07C1C"></path><path d="M186.32,99.09c-5.56,3.2-10.06,11-10.06,17.41s10.06,17.19,10.06,17.19,10.05-22.39,10.05-28.8S191.87,95.88,186.32,99.09Zm0,16.51c-2.37,1.37-4.28.26-4.28-2.47a9.43,9.43,0,0,1,4.28-7.41c2.36-1.37,4.28-.26,4.28,2.47A9.46,9.46,0,0,1,186.32,115.6Z" style="fill:#F07C1C"></path><path d="M186.32,99.09c-5.56,3.2-10.06,11-10.06,17.41s10.06,17.19,10.06,17.19,10.05-22.39,10.05-28.8S191.87,95.88,186.32,99.09Zm0,16.51c-2.37,1.37-4.28.26-4.28-2.47a9.43,9.43,0,0,1,4.28-7.41c2.36-1.37,4.28-.26,4.28,2.47A9.46,9.46,0,0,1,186.32,115.6Z" style="opacity:0.5"></path></g><g id="freepik--Sign--inject-175"><path d="M382,328.36V291H352.89v37.66c0,2.16,1.43,4.31,4.27,6,5.7,3.29,14.93,3.29,20.63,0C380.78,332.92,382.19,330.63,382,328.36Z" style="fill:#263238"></path><path d="M377.79,285.08c5.69,3.28,5.69,8.62,0,11.9s-14.93,3.29-20.63,0-5.69-8.62,0-11.9S372.09,281.79,377.79,285.08Z" style="fill:#37474f"></path><polygon points="319.38 75.59 364.28 101.52 364.28 75.37 319.38 49.45 307.1 55.43 319.38 75.59" style="fill:#F07C1C"></polygon><polygon points="319.38 75.59 364.28 101.52 364.28 75.37 319.38 49.45 307.1 55.43 319.38 75.59" style="fill:#fff;opacity:0.30000000000000004"></polygon><polygon points="317.61 76.46 362.51 102.39 362.51 76.24 317.61 50.32 305.33 56.3 317.61 76.46" style="fill:#F07C1C"></polygon><polygon points="317.61 76.46 362.51 102.39 362.51 76.24 317.61 50.32 305.33 56.3 317.61 76.46" style="fill:#fff;opacity:0.7000000000000001"></polygon><polygon points="415.58 75.59 370.68 101.52 370.68 75.37 415.58 49.45 427.86 55.43 415.58 75.59" style="fill:#F07C1C"></polygon><polygon points="415.58 75.59 370.68 101.52 370.68 75.37 415.58 49.45 427.86 55.43 415.58 75.59" style="fill:#fff;opacity:0.30000000000000004"></polygon><polygon points="417.35 76.46 372.45 102.39 372.45 76.24 417.35 50.32 429.63 56.3 417.35 76.46" style="fill:#F07C1C"></polygon><polygon points="417.35 76.46 372.45 102.39 372.45 76.24 417.35 50.32 429.63 56.3 417.35 76.46" style="fill:#fff;opacity:0.5"></polygon><text transform="matrix(0.87, -0.5, 0, 1, 385.1, 85.66)" style="font-size:10.68416976928711px;fill:#455a64;font-family:Montserrat-ExtraBold, Montserrat;font-weight:800">Ho<tspan x="15.24" y="0" style="letter-spacing:-0.0009140147533077584em">t</tspan><tspan x="20.02" y="0">el</tspan></text><text transform="matrix(0.87, 0.5, 0, 1, 323.93, 71.54)" style="font-size:10.68416976928711px;fill:#455a64;font-family:Montserrat-ExtraBold, Montserrat;font-weight:800">Hills</text><path d="M370.35,291.88h0a7.7,7.7,0,0,1-5.74,0h0a3.39,3.39,0,0,1-2.14-3.15V60.18h10V288.73A3.38,3.38,0,0,1,370.35,291.88Z" style="fill:#455a64"></path><path d="M375.21,55.73A7.73,7.73,0,1,1,367.48,48,7.73,7.73,0,0,1,375.21,55.73Z" style="fill:#37474f"></path><polygon points="417.35 132.35 370.68 81.16 372.45 80.29 417.35 106.21 429.63 126.37 417.35 132.35" style="fill:#F07C1C"></polygon><polygon points="417.35 132.35 370.68 81.16 372.45 80.29 417.35 106.21 429.63 126.37 417.35 132.35" style="fill:#fff;opacity:0.30000000000000004"></polygon><polygon points="415.58 133.22 370.68 107.3 370.68 81.16 415.58 107.08 427.86 127.24 415.58 133.22" style="fill:#F07C1C"></polygon><polygon points="415.58 133.22 370.68 107.3 370.68 81.16 415.58 107.08 427.86 127.24 415.58 133.22" style="fill:#fff;opacity:0.7000000000000001"></polygon><polygon points="317.61 132.35 364.28 81.16 362.51 80.29 317.61 106.21 305.33 126.37 317.61 132.35" style="fill:#F07C1C"></polygon><polygon points="317.61 132.35 364.28 81.16 362.51 80.29 317.61 106.21 305.33 126.37 317.61 132.35" style="fill:#fff;opacity:0.30000000000000004"></polygon><polygon points="319.38 133.22 364.28 107.3 364.28 81.16 319.38 107.08 307.1 127.24 319.38 133.22" style="fill:#F07C1C"></polygon><polygon points="319.38 133.22 364.28 107.3 364.28 81.16 319.38 107.08 307.1 127.24 319.38 133.22" style="fill:#fff;opacity:0.5"></polygon><text transform="matrix(0.87, -0.5, 0, 1, 323.97, 120.35)" style="font-size:10.68416976928711px;fill:#455a64;font-family:Montserrat-ExtraBold, Montserrat;font-weight:800">Beach</text><text transform="matrix(0.87, 0.5, 0, 1, 380.17, 103.35)" style="font-size:10.68416976928711px;fill:#455a64;font-family:Montserrat-ExtraBold, Montserrat;font-weight:800">Park</text></g><g id="freepik--Clouds--inject-175"><path d="M117.16,44.46l-6,3.43V45.76c0-.15,0-.31,0-.45s0-.29,0-.43v-.05h0c-.22-2.83-2.36-3.91-5-2.4a9.71,9.71,0,0,0-3,2.84c-.59-3.83-3.72-5.22-7.5-3A16.8,16.8,0,0,0,88.1,55.41V60a2.09,2.09,0,0,1-1,1.79l-3.54,2.07A5.12,5.12,0,0,0,81,68.25a2.1,2.1,0,0,0,3.15,1.82l32.91-19a5.74,5.74,0,0,0,2.87-5A1.86,1.86,0,0,0,117.16,44.46Z" style="fill:#e0e0e0"></path><path d="M151,53l-4.14,2.35V53.89c0-.11,0-.21,0-.32a2.81,2.81,0,0,0,0-.29v0h0c-.15-1.94-1.62-2.69-3.41-1.65a6.73,6.73,0,0,0-2,1.95c-.4-2.63-2.55-3.58-5.14-2.08A11.52,11.52,0,0,0,131,60.52v3.13a1.44,1.44,0,0,1-.7,1.23l-2.44,1.42a3.53,3.53,0,0,0-1.73,3,1.44,1.44,0,0,0,2.17,1.25l22.59-13a4,4,0,0,0,2-3.42A1.28,1.28,0,0,0,151,53Z" style="fill:#e0e0e0"></path></g></svg>